<svg xmlns="http://www.w3.org/2000/svg" width="695" height="897" viewBox="0 0 695 897">
<rect width="100%" height="100%" fill="#101014"/>
<rect x="486.0" y="842.9" width="9.0" height="9.0" fill="#7a2222" opacity="0.8"/>
<rect x="495.0" y="842.9" width="9.0" height="9.0" fill="#7a2222" opacity="0.8"/>
<rect x="504.0" y="842.9" width="9.0" height="9.0" fill="#7a2222" opacity="0.8"/>
<rect x="513.0" y="842.9" width="9.0" height="9.0" fill="#7a2222" opacity="0.8"/>
<rect x="522.0" y="842.9" width="9.0" height="9.0" fill="#7a2222" opacity="0.8"/>
<rect x="531.0" y="842.9" width="9.0" height="9.0" fill="#7a2222" opacity="0.8"/>
<rect x="540.0" y="842.9" width="9.0" height="9.0" fill="#7a2222" opacity="0.8"/>
<rect x="387.0" y="833.9" width="9.0" height="9.0" fill="#7a2222" opacity="0.8"/>
<rect x="396.0" y="833.9" width="9.0" height="9.0" fill="#7a2222" opacity="0.8"/>
<rect x="405.0" y="833.9" width="9.0" height="9.0" fill="#7a2222" opacity="0.8"/>
<rect x="414.0" y="833.9" width="9.0" height="9.0" fill="#7a2222" opacity="0.8"/>
<rect x="423.0" y="833.9" width="9.0" height="9.0" fill="#7a2222" opacity="0.8"/>
<rect x="432.0" y="833.9" width="9.0" height="9.0" fill="#7a2222" opacity="0.8"/>
<rect x="441.0" y="833.9" width="9.0" height="9.0" fill="#7a2222" opacity="0.8"/>
<rect x="450.0" y="833.9" width="9.0" height="9.0" fill="#7a2222" opacity="0.8"/>
<rect x="459.0" y="833.9" width="9.0" height="9.0" fill="#7a2222" opacity="0.8"/>
<rect x="468.0" y="833.9" width="9.0" height="9.0" fill="#7a2222" opacity="0.8"/>
<rect x="477.0" y="833.9" width="9.0" height="9.0" fill="#7a2222" opacity="0.8"/>
<rect x="486.0" y="833.9" width="9.0" height="9.0" fill="#7a2222" opacity="0.8"/>
<rect x="495.0" y="833.9" width="9.0" height="9.0" fill="#7a2222" opacity="0.8"/>
<rect x="504.0" y="833.9" width="9.0" height="9.0" fill="#7a2222" opacity="0.8"/>
<rect x="513.0" y="833.9" width="9.0" height="9.0" fill="#7a2222" opacity="0.8"/>
<rect x="522.0" y="833.9" width="9.0" height="9.0" fill="#7a2222" opacity="0.8"/>
<rect x="531.0" y="833.9" width="9.0" height="9.0" fill="#7a2222" opacity="0.8"/>
<rect x="540.0" y="833.9" width="9.0" height="9.0" fill="#7a2222" opacity="0.8"/>
<rect x="333.0" y="824.9" width="9.0" height="9.0" fill="#7a2222" opacity="0.8"/>
<rect x="342.0" y="824.9" width="9.0" height="9.0" fill="#7a2222" opacity="0.8"/>
<rect x="351.0" y="824.9" width="9.0" height="9.0" fill="#7a2222" opacity="0.8"/>
<rect x="360.0" y="824.9" width="9.0" height="9.0" fill="#7a2222" opacity="0.8"/>
<rect x="369.0" y="824.9" width="9.0" height="9.0" fill="#7a2222" opacity="0.8"/>
<rect x="378.0" y="824.9" width="9.0" height="9.0" fill="#7a2222" opacity="0.8"/>
<rect x="387.0" y="824.9" width="9.0" height="9.0" fill="#7a2222" opacity="0.8"/>
<rect x="396.0" y="824.9" width="9.0" height="9.0" fill="#7a2222" opacity="0.8"/>
<rect x="405.0" y="824.9" width="9.0" height="9.0" fill="#7a2222" opacity="0.8"/>
<rect x="414.0" y="824.9" width="9.0" height="9.0" fill="#7a2222" opacity="0.8"/>
<rect x="423.0" y="824.9" width="9.0" height="9.0" fill="#7a2222" opacity="0.8"/>
<rect x="432.0" y="824.9" width="9.0" height="9.0" fill="#7a2222" opacity="0.8"/>
<rect x="441.0" y="824.9" width="9.0" height="9.0" fill="#7a2222" opacity="0.8"/>
<rect x="450.0" y="824.9" width="9.0" height="9.0" fill="#7a2222" opacity="0.8"/>
<rect x="459.0" y="824.9" width="9.0" height="9.0" fill="#7a2222" opacity="0.8"/>
<rect x="468.0" y="824.9" width="9.0" height="9.0" fill="#7a2222" opacity="0.8"/>
<rect x="477.0" y="824.9" width="9.0" height="9.0" fill="#7a2222" opacity="0.8"/>
<rect x="540.0" y="824.9" width="9.0" height="9.0" fill="#7a2222" opacity="0.8"/>
<rect x="549.0" y="824.9" width="9.0" height="9.0" fill="#7a2222" opacity="0.8"/>
<rect x="306.0" y="815.9" width="9.0" height="9.0" fill="#7a2222" opacity="0.8"/>
<rect x="315.0" y="815.9" width="9.0" height="9.0" fill="#7a2222" opacity="0.8"/>
<rect x="324.0" y="815.9" width="9.0" height="9.0" fill="#7a2222" opacity="0.8"/>
<rect x="333.0" y="815.9" width="9.0" height="9.0" fill="#7a2222" opacity="0.8"/>
<rect x="342.0" y="815.9" width="9.0" height="9.0" fill="#7a2222" opacity="0.8"/>
<rect x="351.0" y="815.9" width="9.0" height="9.0" fill="#7a2222" opacity="0.8"/>
<rect x="360.0" y="815.9" width="9.0" height="9.0" fill="#7a2222" opacity="0.8"/>
<rect x="369.0" y="815.9" width="9.0" height="9.0" fill="#7a2222" opacity="0.8"/>
<rect x="378.0" y="815.9" width="9.0" height="9.0" fill="#7a2222" opacity="0.8"/>
<rect x="549.0" y="815.9" width="9.0" height="9.0" fill="#7a2222" opacity="0.8"/>
<rect x="558.0" y="815.9" width="9.0" height="9.0" fill="#7a2222" opacity="0.8"/>
<rect x="297.0" y="806.9" width="9.0" height="9.0" fill="#7a2222" opacity="0.8"/>
<rect x="306.0" y="806.9" width="9.0" height="9.0" fill="#7a2222" opacity="0.8"/>
<rect x="558.0" y="806.9" width="9.0" height="9.0" fill="#7a2222" opacity="0.8"/>
<rect x="567.0" y="806.9" width="9.0" height="9.0" fill="#7a2222" opacity="0.8"/>
<rect x="288.0" y="797.9" width="9.0" height="9.0" fill="#7a2222" opacity="0.8"/>
<rect x="297.0" y="797.9" width="9.0" height="9.0" fill="#7a2222" opacity="0.8"/>
<rect x="567.0" y="797.9" width="9.0" height="9.0" fill="#7a2222" opacity="0.8"/>
<rect x="576.0" y="797.9" width="9.0" height="9.0" fill="#7a2222" opacity="0.8"/>
<rect x="279.0" y="788.9" width="9.0" height="9.0" fill="#7a2222" opacity="0.8"/>
<rect x="288.0" y="788.9" width="9.0" height="9.0" fill="#7a2222" opacity="0.8"/>
<rect x="297.0" y="788.9" width="9.0" height="9.0" fill="#7a2222" opacity="0.8"/>
<rect x="576.0" y="788.9" width="9.0" height="9.0" fill="#7a2222" opacity="0.8"/>
<rect x="585.0" y="788.9" width="9.0" height="9.0" fill="#7a2222" opacity="0.8"/>
<rect x="279.0" y="779.9" width="9.0" height="9.0" fill="#7a2222" opacity="0.8"/>
<rect x="288.0" y="779.9" width="9.0" height="9.0" fill="#7a2222" opacity="0.8"/>
<rect x="369.0" y="779.9" width="9.0" height="9.0" fill="#7a2222" opacity="0.8"/>
<rect x="585.0" y="779.9" width="9.0" height="9.0" fill="#7a2222" opacity="0.8"/>
<rect x="594.0" y="779.9" width="9.0" height="9.0" fill="#7a2222" opacity="0.8"/>
<rect x="270.0" y="770.9" width="9.0" height="9.0" fill="#7a2222" opacity="0.8"/>
<rect x="279.0" y="770.9" width="9.0" height="9.0" fill="#7a2222" opacity="0.8"/>
<rect x="351.0" y="770.9" width="9.0" height="9.0" fill="#7a2222" opacity="0.8"/>
<rect x="360.0" y="770.9" width="9.0" height="9.0" fill="#7a2222" opacity="0.8"/>
<rect x="594.0" y="770.9" width="9.0" height="9.0" fill="#7a2222" opacity="0.8"/>
<rect x="603.0" y="770.9" width="9.0" height="9.0" fill="#7a2222" opacity="0.8"/>
<rect x="261.0" y="761.9" width="9.0" height="9.0" fill="#7a2222" opacity="0.8"/>
<rect x="270.0" y="761.9" width="9.0" height="9.0" fill="#7a2222" opacity="0.8"/>
<rect x="279.0" y="761.9" width="9.0" height="9.0" fill="#7a2222" opacity="0.8"/>
<rect x="342.0" y="761.9" width="9.0" height="9.0" fill="#7a2222" opacity="0.8"/>
<rect x="351.0" y="761.9" width="9.0" height="9.0" fill="#7a2222" opacity="0.8"/>
<rect x="603.0" y="761.9" width="9.0" height="9.0" fill="#7a2222" opacity="0.8"/>
<rect x="612.0" y="761.9" width="9.0" height="9.0" fill="#7a2222" opacity="0.8"/>
<rect x="252.0" y="752.9" width="9.0" height="9.0" fill="#7a2222" opacity="0.8"/>
<rect x="261.0" y="752.9" width="9.0" height="9.0" fill="#7a2222" opacity="0.8"/>
<rect x="270.0" y="752.9" width="9.0" height="9.0" fill="#7a2222" opacity="0.8"/>
<rect x="342.0" y="752.9" width="9.0" height="9.0" fill="#7a2222" opacity="0.8"/>
<rect x="351.0" y="752.9" width="9.0" height="9.0" fill="#7a2222" opacity="0.8"/>
<rect x="603.0" y="752.9" width="9.0" height="9.0" fill="#7a2222" opacity="0.8"/>
<rect x="612.0" y="752.9" width="9.0" height="9.0" fill="#7a2222" opacity="0.8"/>
<rect x="621.0" y="752.9" width="9.0" height="9.0" fill="#7a2222" opacity="0.8"/>
<rect x="252.0" y="743.9" width="9.0" height="9.0" fill="#7a2222" opacity="0.8"/>
<rect x="261.0" y="743.9" width="9.0" height="9.0" fill="#7a2222" opacity="0.8"/>
<rect x="342.0" y="743.9" width="9.0" height="9.0" fill="#7a2222" opacity="0.8"/>
<rect x="612.0" y="743.9" width="9.0" height="9.0" fill="#7a2222" opacity="0.8"/>
<rect x="621.0" y="743.9" width="9.0" height="9.0" fill="#7a2222" opacity="0.8"/>
<rect x="630.0" y="743.9" width="9.0" height="9.0" fill="#7a2222" opacity="0.8"/>
<rect x="243.0" y="734.9" width="9.0" height="9.0" fill="#7a2222" opacity="0.8"/>
<rect x="252.0" y="734.9" width="9.0" height="9.0" fill="#7a2222" opacity="0.8"/>
<rect x="621.0" y="734.9" width="9.0" height="9.0" fill="#7a2222" opacity="0.8"/>
<rect x="630.0" y="734.9" width="9.0" height="9.0" fill="#7a2222" opacity="0.8"/>
<rect x="639.0" y="734.9" width="9.0" height="9.0" fill="#7a2222" opacity="0.8"/>
<rect x="234.0" y="725.9" width="9.0" height="9.0" fill="#7a2222" opacity="0.8"/>
<rect x="243.0" y="725.9" width="9.0" height="9.0" fill="#7a2222" opacity="0.8"/>
<rect x="252.0" y="725.9" width="9.0" height="9.0" fill="#7a2222" opacity="0.8"/>
<rect x="315.0" y="725.9" width="9.0" height="9.0" fill="#7a2222" opacity="0.8"/>
<rect x="630.0" y="725.9" width="9.0" height="9.0" fill="#7a2222" opacity="0.8"/>
<rect x="639.0" y="725.9" width="9.0" height="9.0" fill="#7a2222" opacity="0.8"/>
<rect x="225.0" y="716.9" width="9.0" height="9.0" fill="#7a2222" opacity="0.8"/>
<rect x="234.0" y="716.9" width="9.0" height="9.0" fill="#7a2222" opacity="0.8"/>
<rect x="243.0" y="716.9" width="9.0" height="9.0" fill="#7a2222" opacity="0.8"/>
<rect x="306.0" y="716.9" width="9.0" height="9.0" fill="#7a2222" opacity="0.8"/>
<rect x="315.0" y="716.9" width="9.0" height="9.0" fill="#7a2222" opacity="0.8"/>
<rect x="576.0" y="716.9" width="9.0" height="9.0" fill="#7a2222" opacity="0.8"/>
<rect x="621.0" y="716.9" width="9.0" height="9.0" fill="#7a2222" opacity="0.8"/>
<rect x="630.0" y="716.9" width="9.0" height="9.0" fill="#7a2222" opacity="0.8"/>
<rect x="216.0" y="707.9" width="9.0" height="9.0" fill="#7a2222" opacity="0.8"/>
<rect x="225.0" y="707.9" width="9.0" height="9.0" fill="#7a2222" opacity="0.8"/>
<rect x="234.0" y="707.9" width="9.0" height="9.0" fill="#7a2222" opacity="0.8"/>
<rect x="297.0" y="707.9" width="9.0" height="9.0" fill="#7a2222" opacity="0.8"/>
<rect x="306.0" y="707.9" width="9.0" height="9.0" fill="#7a2222" opacity="0.8"/>
<rect x="315.0" y="707.9" width="9.0" height="9.0" fill="#7a2222" opacity="0.8"/>
<rect x="567.0" y="707.9" width="9.0" height="9.0" fill="#7a2222" opacity="0.8"/>
<rect x="576.0" y="707.9" width="9.0" height="9.0" fill="#7a2222" opacity="0.8"/>
<rect x="621.0" y="707.9" width="9.0" height="9.0" fill="#7a2222" opacity="0.8"/>
<rect x="630.0" y="707.9" width="9.0" height="9.0" fill="#7a2222" opacity="0.8"/>
<rect x="216.0" y="698.9" width="9.0" height="9.0" fill="#7a2222" opacity="0.8"/>
<rect x="225.0" y="698.9" width="9.0" height="9.0" fill="#7a2222" opacity="0.8"/>
<rect x="297.0" y="698.9" width="9.0" height="9.0" fill="#7a2222" opacity="0.8"/>
<rect x="306.0" y="698.9" width="9.0" height="9.0" fill="#7a2222" opacity="0.8"/>
<rect x="558.0" y="698.9" width="9.0" height="9.0" fill="#7a2222" opacity="0.8"/>
<rect x="567.0" y="698.9" width="9.0" height="9.0" fill="#7a2222" opacity="0.8"/>
<rect x="576.0" y="698.9" width="9.0" height="9.0" fill="#7a2222" opacity="0.8"/>
<rect x="612.0" y="698.9" width="9.0" height="9.0" fill="#7a2222" opacity="0.8"/>
<rect x="621.0" y="698.9" width="9.0" height="9.0" fill="#7a2222" opacity="0.8"/>
<rect x="630.0" y="698.9" width="9.0" height="9.0" fill="#7a2222" opacity="0.8"/>
<rect x="207.0" y="689.9" width="9.0" height="9.0" fill="#7a2222" opacity="0.8"/>
<rect x="216.0" y="689.9" width="9.0" height="9.0" fill="#7a2222" opacity="0.8"/>
<rect x="288.0" y="689.9" width="9.0" height="9.0" fill="#7a2222" opacity="0.8"/>
<rect x="297.0" y="689.9" width="9.0" height="9.0" fill="#7a2222" opacity="0.8"/>
<rect x="549.0" y="689.9" width="9.0" height="9.0" fill="#7a2222" opacity="0.8"/>
<rect x="558.0" y="689.9" width="9.0" height="9.0" fill="#7a2222" opacity="0.8"/>
<rect x="567.0" y="689.9" width="9.0" height="9.0" fill="#7a2222" opacity="0.8"/>
<rect x="612.0" y="689.9" width="9.0" height="9.0" fill="#7a2222" opacity="0.8"/>
<rect x="621.0" y="689.9" width="9.0" height="9.0" fill="#7a2222" opacity="0.8"/>
<rect x="198.0" y="680.9" width="9.0" height="9.0" fill="#7a2222" opacity="0.8"/>
<rect x="207.0" y="680.9" width="9.0" height="9.0" fill="#7a2222" opacity="0.8"/>
<rect x="216.0" y="680.9" width="9.0" height="9.0" fill="#7a2222" opacity="0.8"/>
<rect x="279.0" y="680.9" width="9.0" height="9.0" fill="#7a2222" opacity="0.8"/>
<rect x="288.0" y="680.9" width="9.0" height="9.0" fill="#7a2222" opacity="0.8"/>
<rect x="549.0" y="680.9" width="9.0" height="9.0" fill="#7a2222" opacity="0.8"/>
<rect x="558.0" y="680.9" width="9.0" height="9.0" fill="#7a2222" opacity="0.8"/>
<rect x="567.0" y="680.9" width="9.0" height="9.0" fill="#7a2222" opacity="0.8"/>
<rect x="612.0" y="680.9" width="9.0" height="9.0" fill="#7a2222" opacity="0.8"/>
<rect x="621.0" y="680.9" width="9.0" height="9.0" fill="#7a2222" opacity="0.8"/>
<rect x="189.0" y="671.9" width="9.0" height="9.0" fill="#7a2222" opacity="0.8"/>
<rect x="198.0" y="671.9" width="9.0" height="9.0" fill="#7a2222" opacity="0.8"/>
<rect x="207.0" y="671.9" width="9.0" height="9.0" fill="#7a2222" opacity="0.8"/>
<rect x="270.0" y="671.9" width="9.0" height="9.0" fill="#7a2222" opacity="0.8"/>
<rect x="279.0" y="671.9" width="9.0" height="9.0" fill="#7a2222" opacity="0.8"/>
<rect x="540.0" y="671.9" width="9.0" height="9.0" fill="#7a2222" opacity="0.8"/>
<rect x="549.0" y="671.9" width="9.0" height="9.0" fill="#7a2222" opacity="0.8"/>
<rect x="558.0" y="671.9" width="9.0" height="9.0" fill="#7a2222" opacity="0.8"/>
<rect x="603.0" y="671.9" width="9.0" height="9.0" fill="#7a2222" opacity="0.8"/>
<rect x="612.0" y="671.9" width="9.0" height="9.0" fill="#7a2222" opacity="0.8"/>
<rect x="189.0" y="662.9" width="9.0" height="9.0" fill="#7a2222" opacity="0.8"/>
<rect x="198.0" y="662.9" width="9.0" height="9.0" fill="#7a2222" opacity="0.8"/>
<rect x="261.0" y="662.9" width="9.0" height="9.0" fill="#7a2222" opacity="0.8"/>
<rect x="270.0" y="662.9" width="9.0" height="9.0" fill="#7a2222" opacity="0.8"/>
<rect x="279.0" y="662.9" width="9.0" height="9.0" fill="#7a2222" opacity="0.8"/>
<rect x="531.0" y="662.9" width="9.0" height="9.0" fill="#7a2222" opacity="0.8"/>
<rect x="540.0" y="662.9" width="9.0" height="9.0" fill="#7a2222" opacity="0.8"/>
<rect x="549.0" y="662.9" width="9.0" height="9.0" fill="#7a2222" opacity="0.8"/>
<rect x="558.0" y="662.9" width="9.0" height="9.0" fill="#7a2222" opacity="0.8"/>
<rect x="603.0" y="662.9" width="9.0" height="9.0" fill="#7a2222" opacity="0.8"/>
<rect x="612.0" y="662.9" width="9.0" height="9.0" fill="#7a2222" opacity="0.8"/>
<rect x="180.0" y="653.9" width="9.0" height="9.0" fill="#7a2222" opacity="0.8"/>
<rect x="189.0" y="653.9" width="9.0" height="9.0" fill="#7a2222" opacity="0.8"/>
<rect x="261.0" y="653.9" width="9.0" height="9.0" fill="#7a2222" opacity="0.8"/>
<rect x="270.0" y="653.9" width="9.0" height="9.0" fill="#7a2222" opacity="0.8"/>
<rect x="522.0" y="653.9" width="9.0" height="9.0" fill="#7a2222" opacity="0.8"/>
<rect x="531.0" y="653.9" width="9.0" height="9.0" fill="#7a2222" opacity="0.8"/>
<rect x="540.0" y="653.9" width="9.0" height="9.0" fill="#7a2222" opacity="0.8"/>
<rect x="549.0" y="653.9" width="9.0" height="9.0" fill="#7a2222" opacity="0.8"/>
<rect x="594.0" y="653.9" width="9.0" height="9.0" fill="#7a2222" opacity="0.8"/>
<rect x="603.0" y="653.9" width="9.0" height="9.0" fill="#7a2222" opacity="0.8"/>
<rect x="171.0" y="644.9" width="9.0" height="9.0" fill="#7a2222" opacity="0.8"/>
<rect x="180.0" y="644.9" width="9.0" height="9.0" fill="#7a2222" opacity="0.8"/>
<rect x="189.0" y="644.9" width="9.0" height="9.0" fill="#7a2222" opacity="0.8"/>
<rect x="252.0" y="644.9" width="9.0" height="9.0" fill="#7a2222" opacity="0.8"/>
<rect x="261.0" y="644.9" width="9.0" height="9.0" fill="#7a2222" opacity="0.8"/>
<rect x="522.0" y="644.9" width="9.0" height="9.0" fill="#7a2222" opacity="0.8"/>
<rect x="531.0" y="644.9" width="9.0" height="9.0" fill="#7a2222" opacity="0.8"/>
<rect x="540.0" y="644.9" width="9.0" height="9.0" fill="#7a2222" opacity="0.8"/>
<rect x="549.0" y="644.9" width="9.0" height="9.0" fill="#7a2222" opacity="0.8"/>
<rect x="594.0" y="644.9" width="9.0" height="9.0" fill="#7a2222" opacity="0.8"/>
<rect x="603.0" y="644.9" width="9.0" height="9.0" fill="#7a2222" opacity="0.8"/>
<rect x="162.0" y="635.9" width="9.0" height="9.0" fill="#7a2222" opacity="0.8"/>
<rect x="171.0" y="635.9" width="9.0" height="9.0" fill="#7a2222" opacity="0.8"/>
<rect x="180.0" y="635.9" width="9.0" height="9.0" fill="#7a2222" opacity="0.8"/>
<rect x="243.0" y="635.9" width="9.0" height="9.0" fill="#7a2222" opacity="0.8"/>
<rect x="252.0" y="635.9" width="9.0" height="9.0" fill="#7a2222" opacity="0.8"/>
<rect x="513.0" y="635.9" width="9.0" height="9.0" fill="#7a2222" opacity="0.8"/>
<rect x="522.0" y="635.9" width="9.0" height="9.0" fill="#7a2222" opacity="0.8"/>
<rect x="531.0" y="635.9" width="9.0" height="9.0" fill="#7a2222" opacity="0.8"/>
<rect x="540.0" y="635.9" width="9.0" height="9.0" fill="#7a2222" opacity="0.8"/>
<rect x="549.0" y="635.9" width="9.0" height="9.0" fill="#7a2222" opacity="0.8"/>
<rect x="585.0" y="635.9" width="9.0" height="9.0" fill="#7a2222" opacity="0.8"/>
<rect x="594.0" y="635.9" width="9.0" height="9.0" fill="#7a2222" opacity="0.8"/>
<rect x="603.0" y="635.9" width="9.0" height="9.0" fill="#7a2222" opacity="0.8"/>
<rect x="153.0" y="626.9" width="9.0" height="9.0" fill="#7a2222" opacity="0.8"/>
<rect x="162.0" y="626.9" width="9.0" height="9.0" fill="#7a2222" opacity="0.8"/>
<rect x="171.0" y="626.9" width="9.0" height="9.0" fill="#7a2222" opacity="0.8"/>
<rect x="234.0" y="626.9" width="9.0" height="9.0" fill="#7a2222" opacity="0.8"/>
<rect x="243.0" y="626.9" width="9.0" height="9.0" fill="#7a2222" opacity="0.8"/>
<rect x="252.0" y="626.9" width="9.0" height="9.0" fill="#7a2222" opacity="0.8"/>
<rect x="504.0" y="626.9" width="9.0" height="9.0" fill="#7a2222" opacity="0.8"/>
<rect x="513.0" y="626.9" width="9.0" height="9.0" fill="#7a2222" opacity="0.8"/>
<rect x="522.0" y="626.9" width="9.0" height="9.0" fill="#7a2222" opacity="0.8"/>
<rect x="531.0" y="626.9" width="9.0" height="9.0" fill="#7a2222" opacity="0.8"/>
<rect x="540.0" y="626.9" width="9.0" height="9.0" fill="#7a2222" opacity="0.8"/>
<rect x="585.0" y="626.9" width="9.0" height="9.0" fill="#7a2222" opacity="0.8"/>
<rect x="594.0" y="626.9" width="9.0" height="9.0" fill="#7a2222" opacity="0.8"/>
<rect x="153.0" y="617.9" width="9.0" height="9.0" fill="#7a2222" opacity="0.8"/>
<rect x="162.0" y="617.9" width="9.0" height="9.0" fill="#7a2222" opacity="0.8"/>
<rect x="234.0" y="617.9" width="9.0" height="9.0" fill="#7a2222" opacity="0.8"/>
<rect x="243.0" y="617.9" width="9.0" height="9.0" fill="#7a2222" opacity="0.8"/>
<rect x="495.0" y="617.9" width="9.0" height="9.0" fill="#7a2222" opacity="0.8"/>
<rect x="504.0" y="617.9" width="9.0" height="9.0" fill="#7a2222" opacity="0.8"/>
<rect x="513.0" y="617.9" width="9.0" height="9.0" fill="#7a2222" opacity="0.8"/>
<rect x="522.0" y="617.9" width="9.0" height="9.0" fill="#7a2222" opacity="0.8"/>
<rect x="531.0" y="617.9" width="9.0" height="9.0" fill="#7a2222" opacity="0.8"/>
<rect x="540.0" y="617.9" width="9.0" height="9.0" fill="#7a2222" opacity="0.8"/>
<rect x="585.0" y="617.9" width="9.0" height="9.0" fill="#7a2222" opacity="0.8"/>
<rect x="594.0" y="617.9" width="9.0" height="9.0" fill="#7a2222" opacity="0.8"/>
<rect x="144.0" y="608.9" width="9.0" height="9.0" fill="#7a2222" opacity="0.8"/>
<rect x="153.0" y="608.9" width="9.0" height="9.0" fill="#7a2222" opacity="0.8"/>
<rect x="225.0" y="608.9" width="9.0" height="9.0" fill="#7a2222" opacity="0.8"/>
<rect x="234.0" y="608.9" width="9.0" height="9.0" fill="#7a2222" opacity="0.8"/>
<rect x="486.0" y="608.9" width="9.0" height="9.0" fill="#7a2222" opacity="0.8"/>
<rect x="495.0" y="608.9" width="9.0" height="9.0" fill="#7a2222" opacity="0.8"/>
<rect x="504.0" y="608.9" width="9.0" height="9.0" fill="#7a2222" opacity="0.8"/>
<rect x="513.0" y="608.9" width="9.0" height="9.0" fill="#7a2222" opacity="0.8"/>
<rect x="522.0" y="608.9" width="9.0" height="9.0" fill="#7a2222" opacity="0.8"/>
<rect x="531.0" y="608.9" width="9.0" height="9.0" fill="#7a2222" opacity="0.8"/>
<rect x="576.0" y="608.9" width="9.0" height="9.0" fill="#7a2222" opacity="0.8"/>
<rect x="585.0" y="608.9" width="9.0" height="9.0" fill="#7a2222" opacity="0.8"/>
<rect x="135.0" y="599.9" width="9.0" height="9.0" fill="#7a2222" opacity="0.8"/>
<rect x="144.0" y="599.9" width="9.0" height="9.0" fill="#7a2222" opacity="0.8"/>
<rect x="153.0" y="599.9" width="9.0" height="9.0" fill="#7a2222" opacity="0.8"/>
<rect x="216.0" y="599.9" width="9.0" height="9.0" fill="#7a2222" opacity="0.8"/>
<rect x="225.0" y="599.9" width="9.0" height="9.0" fill="#7a2222" opacity="0.8"/>
<rect x="486.0" y="599.9" width="9.0" height="9.0" fill="#7a2222" opacity="0.8"/>
<rect x="495.0" y="599.9" width="9.0" height="9.0" fill="#7a2222" opacity="0.8"/>
<rect x="504.0" y="599.9" width="9.0" height="9.0" fill="#7a2222" opacity="0.8"/>
<rect x="513.0" y="599.9" width="9.0" height="9.0" fill="#7a2222" opacity="0.8"/>
<rect x="522.0" y="599.9" width="9.0" height="9.0" fill="#7a2222" opacity="0.8"/>
<rect x="576.0" y="599.9" width="9.0" height="9.0" fill="#7a2222" opacity="0.8"/>
<rect x="585.0" y="599.9" width="9.0" height="9.0" fill="#7a2222" opacity="0.8"/>
<rect x="126.0" y="590.9" width="9.0" height="9.0" fill="#7a2222" opacity="0.8"/>
<rect x="135.0" y="590.9" width="9.0" height="9.0" fill="#7a2222" opacity="0.8"/>
<rect x="144.0" y="590.9" width="9.0" height="9.0" fill="#7a2222" opacity="0.8"/>
<rect x="207.0" y="590.9" width="9.0" height="9.0" fill="#7a2222" opacity="0.8"/>
<rect x="216.0" y="590.9" width="9.0" height="9.0" fill="#7a2222" opacity="0.8"/>
<rect x="477.0" y="590.9" width="9.0" height="9.0" fill="#7a2222" opacity="0.8"/>
<rect x="486.0" y="590.9" width="9.0" height="9.0" fill="#7a2222" opacity="0.8"/>
<rect x="495.0" y="590.9" width="9.0" height="9.0" fill="#7a2222" opacity="0.8"/>
<rect x="504.0" y="590.9" width="9.0" height="9.0" fill="#7a2222" opacity="0.8"/>
<rect x="513.0" y="590.9" width="9.0" height="9.0" fill="#7a2222" opacity="0.8"/>
<rect x="567.0" y="590.9" width="9.0" height="9.0" fill="#7a2222" opacity="0.8"/>
<rect x="576.0" y="590.9" width="9.0" height="9.0" fill="#7a2222" opacity="0.8"/>
<rect x="117.0" y="581.9" width="9.0" height="9.0" fill="#7a2222" opacity="0.8"/>
<rect x="126.0" y="581.9" width="9.0" height="9.0" fill="#7a2222" opacity="0.8"/>
<rect x="135.0" y="581.9" width="9.0" height="9.0" fill="#7a2222" opacity="0.8"/>
<rect x="198.0" y="581.9" width="9.0" height="9.0" fill="#7a2222" opacity="0.8"/>
<rect x="207.0" y="581.9" width="9.0" height="9.0" fill="#7a2222" opacity="0.8"/>
<rect x="216.0" y="581.9" width="9.0" height="9.0" fill="#7a2222" opacity="0.8"/>
<rect x="468.0" y="581.9" width="9.0" height="9.0" fill="#7a2222" opacity="0.8"/>
<rect x="477.0" y="581.9" width="9.0" height="9.0" fill="#7a2222" opacity="0.8"/>
<rect x="486.0" y="581.9" width="9.0" height="9.0" fill="#7a2222" opacity="0.8"/>
<rect x="495.0" y="581.9" width="9.0" height="9.0" fill="#7a2222" opacity="0.8"/>
<rect x="504.0" y="581.9" width="9.0" height="9.0" fill="#7a2222" opacity="0.8"/>
<rect x="558.0" y="581.9" width="9.0" height="9.0" fill="#7a2222" opacity="0.8"/>
<rect x="567.0" y="581.9" width="9.0" height="9.0" fill="#7a2222" opacity="0.8"/>
<rect x="576.0" y="581.9" width="9.0" height="9.0" fill="#7a2222" opacity="0.8"/>
<rect x="117.0" y="572.9" width="9.0" height="9.0" fill="#7a2222" opacity="0.8"/>
<rect x="126.0" y="572.9" width="9.0" height="9.0" fill="#7a2222" opacity="0.8"/>
<rect x="198.0" y="572.9" width="9.0" height="9.0" fill="#7a2222" opacity="0.8"/>
<rect x="207.0" y="572.9" width="9.0" height="9.0" fill="#7a2222" opacity="0.8"/>
<rect x="459.0" y="572.9" width="9.0" height="9.0" fill="#7a2222" opacity="0.8"/>
<rect x="468.0" y="572.9" width="9.0" height="9.0" fill="#7a2222" opacity="0.8"/>
<rect x="477.0" y="572.9" width="9.0" height="9.0" fill="#7a2222" opacity="0.8"/>
<rect x="486.0" y="572.9" width="9.0" height="9.0" fill="#7a2222" opacity="0.8"/>
<rect x="495.0" y="572.9" width="9.0" height="9.0" fill="#7a2222" opacity="0.8"/>
<rect x="504.0" y="572.9" width="9.0" height="9.0" fill="#7a2222" opacity="0.8"/>
<rect x="549.0" y="572.9" width="9.0" height="9.0" fill="#7a2222" opacity="0.8"/>
<rect x="558.0" y="572.9" width="9.0" height="9.0" fill="#7a2222" opacity="0.8"/>
<rect x="567.0" y="572.9" width="9.0" height="9.0" fill="#7a2222" opacity="0.8"/>
<rect x="108.0" y="563.9" width="9.0" height="9.0" fill="#7a2222" opacity="0.8"/>
<rect x="117.0" y="563.9" width="9.0" height="9.0" fill="#7a2222" opacity="0.8"/>
<rect x="189.0" y="563.9" width="9.0" height="9.0" fill="#7a2222" opacity="0.8"/>
<rect x="198.0" y="563.9" width="9.0" height="9.0" fill="#7a2222" opacity="0.8"/>
<rect x="459.0" y="563.9" width="9.0" height="9.0" fill="#7a2222" opacity="0.8"/>
<rect x="468.0" y="563.9" width="9.0" height="9.0" fill="#7a2222" opacity="0.8"/>
<rect x="477.0" y="563.9" width="9.0" height="9.0" fill="#7a2222" opacity="0.8"/>
<rect x="486.0" y="563.9" width="9.0" height="9.0" fill="#7a2222" opacity="0.8"/>
<rect x="495.0" y="563.9" width="9.0" height="9.0" fill="#7a2222" opacity="0.8"/>
<rect x="540.0" y="563.9" width="9.0" height="9.0" fill="#7a2222" opacity="0.8"/>
<rect x="549.0" y="563.9" width="9.0" height="9.0" fill="#7a2222" opacity="0.8"/>
<rect x="558.0" y="563.9" width="9.0" height="9.0" fill="#7a2222" opacity="0.8"/>
<rect x="108.0" y="554.9" width="9.0" height="9.0" fill="#7a2222" opacity="0.8"/>
<rect x="117.0" y="554.9" width="9.0" height="9.0" fill="#7a2222" opacity="0.8"/>
<rect x="180.0" y="554.9" width="9.0" height="9.0" fill="#7a2222" opacity="0.8"/>
<rect x="189.0" y="554.9" width="9.0" height="9.0" fill="#7a2222" opacity="0.8"/>
<rect x="450.0" y="554.9" width="9.0" height="9.0" fill="#7a2222" opacity="0.8"/>
<rect x="459.0" y="554.9" width="9.0" height="9.0" fill="#7a2222" opacity="0.8"/>
<rect x="468.0" y="554.9" width="9.0" height="9.0" fill="#7a2222" opacity="0.8"/>
<rect x="477.0" y="554.9" width="9.0" height="9.0" fill="#7a2222" opacity="0.8"/>
<rect x="486.0" y="554.9" width="9.0" height="9.0" fill="#7a2222" opacity="0.8"/>
<rect x="540.0" y="554.9" width="9.0" height="9.0" fill="#7a2222" opacity="0.8"/>
<rect x="549.0" y="554.9" width="9.0" height="9.0" fill="#7a2222" opacity="0.8"/>
<rect x="108.0" y="545.9" width="9.0" height="9.0" fill="#7a2222" opacity="0.8"/>
<rect x="117.0" y="545.9" width="9.0" height="9.0" fill="#7a2222" opacity="0.8"/>
<rect x="171.0" y="545.9" width="9.0" height="9.0" fill="#7a2222" opacity="0.8"/>
<rect x="180.0" y="545.9" width="9.0" height="9.0" fill="#7a2222" opacity="0.8"/>
<rect x="189.0" y="545.9" width="9.0" height="9.0" fill="#7a2222" opacity="0.8"/>
<rect x="441.0" y="545.9" width="9.0" height="9.0" fill="#7a2222" opacity="0.8"/>
<rect x="450.0" y="545.9" width="9.0" height="9.0" fill="#7a2222" opacity="0.8"/>
<rect x="459.0" y="545.9" width="9.0" height="9.0" fill="#7a2222" opacity="0.8"/>
<rect x="468.0" y="545.9" width="9.0" height="9.0" fill="#7a2222" opacity="0.8"/>
<rect x="477.0" y="545.9" width="9.0" height="9.0" fill="#7a2222" opacity="0.8"/>
<rect x="531.0" y="545.9" width="9.0" height="9.0" fill="#7a2222" opacity="0.8"/>
<rect x="540.0" y="545.9" width="9.0" height="9.0" fill="#7a2222" opacity="0.8"/>
<rect x="108.0" y="536.9" width="9.0" height="9.0" fill="#7a2222" opacity="0.8"/>
<rect x="117.0" y="536.9" width="9.0" height="9.0" fill="#7a2222" opacity="0.8"/>
<rect x="171.0" y="536.9" width="9.0" height="9.0" fill="#7a2222" opacity="0.8"/>
<rect x="180.0" y="536.9" width="9.0" height="9.0" fill="#7a2222" opacity="0.8"/>
<rect x="432.0" y="536.9" width="9.0" height="9.0" fill="#7a2222" opacity="0.8"/>
<rect x="441.0" y="536.9" width="9.0" height="9.0" fill="#7a2222" opacity="0.8"/>
<rect x="450.0" y="536.9" width="9.0" height="9.0" fill="#7a2222" opacity="0.8"/>
<rect x="459.0" y="536.9" width="9.0" height="9.0" fill="#7a2222" opacity="0.8"/>
<rect x="468.0" y="536.9" width="9.0" height="9.0" fill="#7a2222" opacity="0.8"/>
<rect x="522.0" y="536.9" width="9.0" height="9.0" fill="#7a2222" opacity="0.8"/>
<rect x="531.0" y="536.9" width="9.0" height="9.0" fill="#7a2222" opacity="0.8"/>
<rect x="540.0" y="536.9" width="9.0" height="9.0" fill="#7a2222" opacity="0.8"/>
<rect x="108.0" y="527.9" width="9.0" height="9.0" fill="#7a2222" opacity="0.8"/>
<rect x="117.0" y="527.9" width="9.0" height="9.0" fill="#7a2222" opacity="0.8"/>
<rect x="126.0" y="527.9" width="9.0" height="9.0" fill="#7a2222" opacity="0.8"/>
<rect x="423.0" y="527.9" width="9.0" height="9.0" fill="#7a2222" opacity="0.8"/>
<rect x="432.0" y="527.9" width="9.0" height="9.0" fill="#7a2222" opacity="0.8"/>
<rect x="441.0" y="527.9" width="9.0" height="9.0" fill="#7a2222" opacity="0.8"/>
<rect x="450.0" y="527.9" width="9.0" height="9.0" fill="#7a2222" opacity="0.8"/>
<rect x="459.0" y="527.9" width="9.0" height="9.0" fill="#7a2222" opacity="0.8"/>
<rect x="468.0" y="527.9" width="9.0" height="9.0" fill="#7a2222" opacity="0.8"/>
<rect x="513.0" y="527.9" width="9.0" height="9.0" fill="#7a2222" opacity="0.8"/>
<rect x="522.0" y="527.9" width="9.0" height="9.0" fill="#7a2222" opacity="0.8"/>
<rect x="531.0" y="527.9" width="9.0" height="9.0" fill="#7a2222" opacity="0.8"/>
<rect x="117.0" y="518.9" width="9.0" height="9.0" fill="#7a2222" opacity="0.8"/>
<rect x="126.0" y="518.9" width="9.0" height="9.0" fill="#7a2222" opacity="0.8"/>
<rect x="135.0" y="518.9" width="9.0" height="9.0" fill="#7a2222" opacity="0.8"/>
<rect x="423.0" y="518.9" width="9.0" height="9.0" fill="#7a2222" opacity="0.8"/>
<rect x="432.0" y="518.9" width="9.0" height="9.0" fill="#7a2222" opacity="0.8"/>
<rect x="441.0" y="518.9" width="9.0" height="9.0" fill="#7a2222" opacity="0.8"/>
<rect x="450.0" y="518.9" width="9.0" height="9.0" fill="#7a2222" opacity="0.8"/>
<rect x="459.0" y="518.9" width="9.0" height="9.0" fill="#7a2222" opacity="0.8"/>
<rect x="504.0" y="518.9" width="9.0" height="9.0" fill="#7a2222" opacity="0.8"/>
<rect x="513.0" y="518.9" width="9.0" height="9.0" fill="#7a2222" opacity="0.8"/>
<rect x="522.0" y="518.9" width="9.0" height="9.0" fill="#7a2222" opacity="0.8"/>
<rect x="126.0" y="509.9" width="9.0" height="9.0" fill="#7a2222" opacity="0.8"/>
<rect x="135.0" y="509.9" width="9.0" height="9.0" fill="#7a2222" opacity="0.8"/>
<rect x="144.0" y="509.9" width="9.0" height="9.0" fill="#7a2222" opacity="0.8"/>
<rect x="414.0" y="509.9" width="9.0" height="9.0" fill="#7a2222" opacity="0.8"/>
<rect x="423.0" y="509.9" width="9.0" height="9.0" fill="#7a2222" opacity="0.8"/>
<rect x="432.0" y="509.9" width="9.0" height="9.0" fill="#7a2222" opacity="0.8"/>
<rect x="441.0" y="509.9" width="9.0" height="9.0" fill="#7a2222" opacity="0.8"/>
<rect x="450.0" y="509.9" width="9.0" height="9.0" fill="#7a2222" opacity="0.8"/>
<rect x="504.0" y="509.9" width="9.0" height="9.0" fill="#7a2222" opacity="0.8"/>
<rect x="513.0" y="509.9" width="9.0" height="9.0" fill="#7a2222" opacity="0.8"/>
<rect x="135.0" y="500.9" width="9.0" height="9.0" fill="#7a2222" opacity="0.8"/>
<rect x="144.0" y="500.9" width="9.0" height="9.0" fill="#7a2222" opacity="0.8"/>
<rect x="153.0" y="500.9" width="9.0" height="9.0" fill="#7a2222" opacity="0.8"/>
<rect x="162.0" y="500.9" width="9.0" height="9.0" fill="#7a2222" opacity="0.8"/>
<rect x="405.0" y="500.9" width="9.0" height="9.0" fill="#7a2222" opacity="0.8"/>
<rect x="414.0" y="500.9" width="9.0" height="9.0" fill="#7a2222" opacity="0.8"/>
<rect x="423.0" y="500.9" width="9.0" height="9.0" fill="#7a2222" opacity="0.8"/>
<rect x="432.0" y="500.9" width="9.0" height="9.0" fill="#7a2222" opacity="0.8"/>
<rect x="441.0" y="500.9" width="9.0" height="9.0" fill="#7a2222" opacity="0.8"/>
<rect x="495.0" y="500.9" width="9.0" height="9.0" fill="#7a2222" opacity="0.8"/>
<rect x="504.0" y="500.9" width="9.0" height="9.0" fill="#7a2222" opacity="0.8"/>
<rect x="153.0" y="491.9" width="9.0" height="9.0" fill="#7a2222" opacity="0.8"/>
<rect x="162.0" y="491.9" width="9.0" height="9.0" fill="#7a2222" opacity="0.8"/>
<rect x="171.0" y="491.9" width="9.0" height="9.0" fill="#7a2222" opacity="0.8"/>
<rect x="396.0" y="491.9" width="9.0" height="9.0" fill="#7a2222" opacity="0.8"/>
<rect x="405.0" y="491.9" width="9.0" height="9.0" fill="#7a2222" opacity="0.8"/>
<rect x="414.0" y="491.9" width="9.0" height="9.0" fill="#7a2222" opacity="0.8"/>
<rect x="423.0" y="491.9" width="9.0" height="9.0" fill="#7a2222" opacity="0.8"/>
<rect x="432.0" y="491.9" width="9.0" height="9.0" fill="#7a2222" opacity="0.8"/>
<rect x="486.0" y="491.9" width="9.0" height="9.0" fill="#7a2222" opacity="0.8"/>
<rect x="495.0" y="491.9" width="9.0" height="9.0" fill="#7a2222" opacity="0.8"/>
<rect x="504.0" y="491.9" width="9.0" height="9.0" fill="#7a2222" opacity="0.8"/>
<rect x="162.0" y="482.9" width="9.0" height="9.0" fill="#7a2222" opacity="0.8"/>
<rect x="171.0" y="482.9" width="9.0" height="9.0" fill="#7a2222" opacity="0.8"/>
<rect x="180.0" y="482.9" width="9.0" height="9.0" fill="#7a2222" opacity="0.8"/>
<rect x="387.0" y="482.9" width="9.0" height="9.0" fill="#7a2222" opacity="0.8"/>
<rect x="396.0" y="482.9" width="9.0" height="9.0" fill="#7a2222" opacity="0.8"/>
<rect x="405.0" y="482.9" width="9.0" height="9.0" fill="#7a2222" opacity="0.8"/>
<rect x="414.0" y="482.9" width="9.0" height="9.0" fill="#7a2222" opacity="0.8"/>
<rect x="423.0" y="482.9" width="9.0" height="9.0" fill="#7a2222" opacity="0.8"/>
<rect x="432.0" y="482.9" width="9.0" height="9.0" fill="#7a2222" opacity="0.8"/>
<rect x="477.0" y="482.9" width="9.0" height="9.0" fill="#7a2222" opacity="0.8"/>
<rect x="486.0" y="482.9" width="9.0" height="9.0" fill="#7a2222" opacity="0.8"/>
<rect x="495.0" y="482.9" width="9.0" height="9.0" fill="#7a2222" opacity="0.8"/>
<rect x="171.0" y="473.9" width="9.0" height="9.0" fill="#7a2222" opacity="0.8"/>
<rect x="180.0" y="473.9" width="9.0" height="9.0" fill="#7a2222" opacity="0.8"/>
<rect x="189.0" y="473.9" width="9.0" height="9.0" fill="#7a2222" opacity="0.8"/>
<rect x="387.0" y="473.9" width="9.0" height="9.0" fill="#7a2222" opacity="0.8"/>
<rect x="396.0" y="473.9" width="9.0" height="9.0" fill="#7a2222" opacity="0.8"/>
<rect x="405.0" y="473.9" width="9.0" height="9.0" fill="#7a2222" opacity="0.8"/>
<rect x="414.0" y="473.9" width="9.0" height="9.0" fill="#7a2222" opacity="0.8"/>
<rect x="423.0" y="473.9" width="9.0" height="9.0" fill="#7a2222" opacity="0.8"/>
<rect x="468.0" y="473.9" width="9.0" height="9.0" fill="#7a2222" opacity="0.8"/>
<rect x="477.0" y="473.9" width="9.0" height="9.0" fill="#7a2222" opacity="0.8"/>
<rect x="486.0" y="473.9" width="9.0" height="9.0" fill="#7a2222" opacity="0.8"/>
<rect x="180.0" y="464.9" width="9.0" height="9.0" fill="#7a2222" opacity="0.8"/>
<rect x="189.0" y="464.9" width="9.0" height="9.0" fill="#7a2222" opacity="0.8"/>
<rect x="198.0" y="464.9" width="9.0" height="9.0" fill="#7a2222" opacity="0.8"/>
<rect x="378.0" y="464.9" width="9.0" height="9.0" fill="#7a2222" opacity="0.8"/>
<rect x="387.0" y="464.9" width="9.0" height="9.0" fill="#7a2222" opacity="0.8"/>
<rect x="396.0" y="464.9" width="9.0" height="9.0" fill="#7a2222" opacity="0.8"/>
<rect x="405.0" y="464.9" width="9.0" height="9.0" fill="#7a2222" opacity="0.8"/>
<rect x="414.0" y="464.9" width="9.0" height="9.0" fill="#7a2222" opacity="0.8"/>
<rect x="468.0" y="464.9" width="9.0" height="9.0" fill="#7a2222" opacity="0.8"/>
<rect x="477.0" y="464.9" width="9.0" height="9.0" fill="#7a2222" opacity="0.8"/>
<rect x="189.0" y="455.9" width="9.0" height="9.0" fill="#7a2222" opacity="0.8"/>
<rect x="198.0" y="455.9" width="9.0" height="9.0" fill="#7a2222" opacity="0.8"/>
<rect x="207.0" y="455.9" width="9.0" height="9.0" fill="#7a2222" opacity="0.8"/>
<rect x="369.0" y="455.9" width="9.0" height="9.0" fill="#7a2222" opacity="0.8"/>
<rect x="378.0" y="455.9" width="9.0" height="9.0" fill="#7a2222" opacity="0.8"/>
<rect x="387.0" y="455.9" width="9.0" height="9.0" fill="#7a2222" opacity="0.8"/>
<rect x="396.0" y="455.9" width="9.0" height="9.0" fill="#7a2222" opacity="0.8"/>
<rect x="405.0" y="455.9" width="9.0" height="9.0" fill="#7a2222" opacity="0.8"/>
<rect x="459.0" y="455.9" width="9.0" height="9.0" fill="#7a2222" opacity="0.8"/>
<rect x="468.0" y="455.9" width="9.0" height="9.0" fill="#7a2222" opacity="0.8"/>
<rect x="207.0" y="446.9" width="9.0" height="9.0" fill="#7a2222" opacity="0.8"/>
<rect x="216.0" y="446.9" width="9.0" height="9.0" fill="#7a2222" opacity="0.8"/>
<rect x="225.0" y="446.9" width="9.0" height="9.0" fill="#7a2222" opacity="0.8"/>
<rect x="360.0" y="446.9" width="9.0" height="9.0" fill="#7a2222" opacity="0.8"/>
<rect x="369.0" y="446.9" width="9.0" height="9.0" fill="#7a2222" opacity="0.8"/>
<rect x="378.0" y="446.9" width="9.0" height="9.0" fill="#7a2222" opacity="0.8"/>
<rect x="387.0" y="446.9" width="9.0" height="9.0" fill="#7a2222" opacity="0.8"/>
<rect x="396.0" y="446.9" width="9.0" height="9.0" fill="#7a2222" opacity="0.8"/>
<rect x="405.0" y="446.9" width="9.0" height="9.0" fill="#7a2222" opacity="0.8"/>
<rect x="450.0" y="446.9" width="9.0" height="9.0" fill="#7a2222" opacity="0.8"/>
<rect x="459.0" y="446.9" width="9.0" height="9.0" fill="#7a2222" opacity="0.8"/>
<rect x="468.0" y="446.9" width="9.0" height="9.0" fill="#7a2222" opacity="0.8"/>
<rect x="216.0" y="437.9" width="9.0" height="9.0" fill="#7a2222" opacity="0.8"/>
<rect x="225.0" y="437.9" width="9.0" height="9.0" fill="#7a2222" opacity="0.8"/>
<rect x="360.0" y="437.9" width="9.0" height="9.0" fill="#7a2222" opacity="0.8"/>
<rect x="369.0" y="437.9" width="9.0" height="9.0" fill="#7a2222" opacity="0.8"/>
<rect x="378.0" y="437.9" width="9.0" height="9.0" fill="#7a2222" opacity="0.8"/>
<rect x="387.0" y="437.9" width="9.0" height="9.0" fill="#7a2222" opacity="0.8"/>
<rect x="396.0" y="437.9" width="9.0" height="9.0" fill="#7a2222" opacity="0.8"/>
<rect x="441.0" y="437.9" width="9.0" height="9.0" fill="#7a2222" opacity="0.8"/>
<rect x="450.0" y="437.9" width="9.0" height="9.0" fill="#7a2222" opacity="0.8"/>
<rect x="459.0" y="437.9" width="9.0" height="9.0" fill="#7a2222" opacity="0.8"/>
<rect x="225.0" y="428.9" width="9.0" height="9.0" fill="#7a2222" opacity="0.8"/>
<rect x="234.0" y="428.9" width="9.0" height="9.0" fill="#7a2222" opacity="0.8"/>
<rect x="351.0" y="428.9" width="9.0" height="9.0" fill="#7a2222" opacity="0.8"/>
<rect x="360.0" y="428.9" width="9.0" height="9.0" fill="#7a2222" opacity="0.8"/>
<rect x="369.0" y="428.9" width="9.0" height="9.0" fill="#7a2222" opacity="0.8"/>
<rect x="378.0" y="428.9" width="9.0" height="9.0" fill="#7a2222" opacity="0.8"/>
<rect x="387.0" y="428.9" width="9.0" height="9.0" fill="#7a2222" opacity="0.8"/>
<rect x="441.0" y="428.9" width="9.0" height="9.0" fill="#7a2222" opacity="0.8"/>
<rect x="450.0" y="428.9" width="9.0" height="9.0" fill="#7a2222" opacity="0.8"/>
<rect x="225.0" y="419.9" width="9.0" height="9.0" fill="#7a2222" opacity="0.8"/>
<rect x="234.0" y="419.9" width="9.0" height="9.0" fill="#7a2222" opacity="0.8"/>
<rect x="342.0" y="419.9" width="9.0" height="9.0" fill="#7a2222" opacity="0.8"/>
<rect x="351.0" y="419.9" width="9.0" height="9.0" fill="#7a2222" opacity="0.8"/>
<rect x="360.0" y="419.9" width="9.0" height="9.0" fill="#7a2222" opacity="0.8"/>
<rect x="369.0" y="419.9" width="9.0" height="9.0" fill="#7a2222" opacity="0.8"/>
<rect x="378.0" y="419.9" width="9.0" height="9.0" fill="#7a2222" opacity="0.8"/>
<rect x="432.0" y="419.9" width="9.0" height="9.0" fill="#7a2222" opacity="0.8"/>
<rect x="441.0" y="419.9" width="9.0" height="9.0" fill="#7a2222" opacity="0.8"/>
<rect x="225.0" y="410.9" width="9.0" height="9.0" fill="#7a2222" opacity="0.8"/>
<rect x="234.0" y="410.9" width="9.0" height="9.0" fill="#7a2222" opacity="0.8"/>
<rect x="333.0" y="410.9" width="9.0" height="9.0" fill="#7a2222" opacity="0.8"/>
<rect x="342.0" y="410.9" width="9.0" height="9.0" fill="#7a2222" opacity="0.8"/>
<rect x="351.0" y="410.9" width="9.0" height="9.0" fill="#7a2222" opacity="0.8"/>
<rect x="360.0" y="410.9" width="9.0" height="9.0" fill="#7a2222" opacity="0.8"/>
<rect x="369.0" y="410.9" width="9.0" height="9.0" fill="#7a2222" opacity="0.8"/>
<rect x="423.0" y="410.9" width="9.0" height="9.0" fill="#7a2222" opacity="0.8"/>
<rect x="432.0" y="410.9" width="9.0" height="9.0" fill="#7a2222" opacity="0.8"/>
<rect x="225.0" y="401.9" width="9.0" height="9.0" fill="#7a2222" opacity="0.8"/>
<rect x="234.0" y="401.9" width="9.0" height="9.0" fill="#7a2222" opacity="0.8"/>
<rect x="324.0" y="401.9" width="9.0" height="9.0" fill="#7a2222" opacity="0.8"/>
<rect x="333.0" y="401.9" width="9.0" height="9.0" fill="#7a2222" opacity="0.8"/>
<rect x="342.0" y="401.9" width="9.0" height="9.0" fill="#7a2222" opacity="0.8"/>
<rect x="351.0" y="401.9" width="9.0" height="9.0" fill="#7a2222" opacity="0.8"/>
<rect x="360.0" y="401.9" width="9.0" height="9.0" fill="#7a2222" opacity="0.8"/>
<rect x="369.0" y="401.9" width="9.0" height="9.0" fill="#7a2222" opacity="0.8"/>
<rect x="414.0" y="401.9" width="9.0" height="9.0" fill="#7a2222" opacity="0.8"/>
<rect x="423.0" y="401.9" width="9.0" height="9.0" fill="#7a2222" opacity="0.8"/>
<rect x="432.0" y="401.9" width="9.0" height="9.0" fill="#7a2222" opacity="0.8"/>
<rect x="225.0" y="392.9" width="9.0" height="9.0" fill="#7a2222" opacity="0.8"/>
<rect x="234.0" y="392.9" width="9.0" height="9.0" fill="#7a2222" opacity="0.8"/>
<rect x="324.0" y="392.9" width="9.0" height="9.0" fill="#7a2222" opacity="0.8"/>
<rect x="333.0" y="392.9" width="9.0" height="9.0" fill="#7a2222" opacity="0.8"/>
<rect x="342.0" y="392.9" width="9.0" height="9.0" fill="#7a2222" opacity="0.8"/>
<rect x="351.0" y="392.9" width="9.0" height="9.0" fill="#7a2222" opacity="0.8"/>
<rect x="360.0" y="392.9" width="9.0" height="9.0" fill="#7a2222" opacity="0.8"/>
<rect x="405.0" y="392.9" width="9.0" height="9.0" fill="#7a2222" opacity="0.8"/>
<rect x="414.0" y="392.9" width="9.0" height="9.0" fill="#7a2222" opacity="0.8"/>
<rect x="423.0" y="392.9" width="9.0" height="9.0" fill="#7a2222" opacity="0.8"/>
<rect x="234.0" y="383.9" width="9.0" height="9.0" fill="#7a2222" opacity="0.8"/>
<rect x="243.0" y="383.9" width="9.0" height="9.0" fill="#7a2222" opacity="0.8"/>
<rect x="315.0" y="383.9" width="9.0" height="9.0" fill="#7a2222" opacity="0.8"/>
<rect x="324.0" y="383.9" width="9.0" height="9.0" fill="#7a2222" opacity="0.8"/>
<rect x="333.0" y="383.9" width="9.0" height="9.0" fill="#7a2222" opacity="0.8"/>
<rect x="342.0" y="383.9" width="9.0" height="9.0" fill="#7a2222" opacity="0.8"/>
<rect x="351.0" y="383.9" width="9.0" height="9.0" fill="#7a2222" opacity="0.8"/>
<rect x="405.0" y="383.9" width="9.0" height="9.0" fill="#7a2222" opacity="0.8"/>
<rect x="414.0" y="383.9" width="9.0" height="9.0" fill="#7a2222" opacity="0.8"/>
<rect x="234.0" y="374.9" width="9.0" height="9.0" fill="#7a2222" opacity="0.8"/>
<rect x="243.0" y="374.9" width="9.0" height="9.0" fill="#7a2222" opacity="0.8"/>
<rect x="306.0" y="374.9" width="9.0" height="9.0" fill="#7a2222" opacity="0.8"/>
<rect x="315.0" y="374.9" width="9.0" height="9.0" fill="#7a2222" opacity="0.8"/>
<rect x="324.0" y="374.9" width="9.0" height="9.0" fill="#7a2222" opacity="0.8"/>
<rect x="333.0" y="374.9" width="9.0" height="9.0" fill="#7a2222" opacity="0.8"/>
<rect x="342.0" y="374.9" width="9.0" height="9.0" fill="#7a2222" opacity="0.8"/>
<rect x="396.0" y="374.9" width="9.0" height="9.0" fill="#7a2222" opacity="0.8"/>
<rect x="405.0" y="374.9" width="9.0" height="9.0" fill="#7a2222" opacity="0.8"/>
<rect x="234.0" y="365.9" width="9.0" height="9.0" fill="#7a2222" opacity="0.8"/>
<rect x="243.0" y="365.9" width="9.0" height="9.0" fill="#7a2222" opacity="0.8"/>
<rect x="306.0" y="365.9" width="9.0" height="9.0" fill="#7a2222" opacity="0.8"/>
<rect x="315.0" y="365.9" width="9.0" height="9.0" fill="#7a2222" opacity="0.8"/>
<rect x="324.0" y="365.9" width="9.0" height="9.0" fill="#7a2222" opacity="0.8"/>
<rect x="333.0" y="365.9" width="9.0" height="9.0" fill="#7a2222" opacity="0.8"/>
<rect x="387.0" y="365.9" width="9.0" height="9.0" fill="#7a2222" opacity="0.8"/>
<rect x="396.0" y="365.9" width="9.0" height="9.0" fill="#7a2222" opacity="0.8"/>
<rect x="405.0" y="365.9" width="9.0" height="9.0" fill="#7a2222" opacity="0.8"/>
<rect x="234.0" y="356.9" width="9.0" height="9.0" fill="#7a2222" opacity="0.8"/>
<rect x="243.0" y="356.9" width="9.0" height="9.0" fill="#7a2222" opacity="0.8"/>
<rect x="306.0" y="356.9" width="9.0" height="9.0" fill="#7a2222" opacity="0.8"/>
<rect x="315.0" y="356.9" width="9.0" height="9.0" fill="#7a2222" opacity="0.8"/>
<rect x="324.0" y="356.9" width="9.0" height="9.0" fill="#7a2222" opacity="0.8"/>
<rect x="333.0" y="356.9" width="9.0" height="9.0" fill="#7a2222" opacity="0.8"/>
<rect x="378.0" y="356.9" width="9.0" height="9.0" fill="#7a2222" opacity="0.8"/>
<rect x="387.0" y="356.9" width="9.0" height="9.0" fill="#7a2222" opacity="0.8"/>
<rect x="396.0" y="356.9" width="9.0" height="9.0" fill="#7a2222" opacity="0.8"/>
<rect x="243.0" y="347.9" width="9.0" height="9.0" fill="#7a2222" opacity="0.8"/>
<rect x="252.0" y="347.9" width="9.0" height="9.0" fill="#7a2222" opacity="0.8"/>
<rect x="306.0" y="347.9" width="9.0" height="9.0" fill="#7a2222" opacity="0.8"/>
<rect x="315.0" y="347.9" width="9.0" height="9.0" fill="#7a2222" opacity="0.8"/>
<rect x="324.0" y="347.9" width="9.0" height="9.0" fill="#7a2222" opacity="0.8"/>
<rect x="369.0" y="347.9" width="9.0" height="9.0" fill="#7a2222" opacity="0.8"/>
<rect x="378.0" y="347.9" width="9.0" height="9.0" fill="#7a2222" opacity="0.8"/>
<rect x="387.0" y="347.9" width="9.0" height="9.0" fill="#7a2222" opacity="0.8"/>
<rect x="234.0" y="338.9" width="9.0" height="9.0" fill="#7a2222" opacity="0.8"/>
<rect x="243.0" y="338.9" width="9.0" height="9.0" fill="#7a2222" opacity="0.8"/>
<rect x="252.0" y="338.9" width="9.0" height="9.0" fill="#7a2222" opacity="0.8"/>
<rect x="297.0" y="338.9" width="9.0" height="9.0" fill="#7a2222" opacity="0.8"/>
<rect x="306.0" y="338.9" width="9.0" height="9.0" fill="#7a2222" opacity="0.8"/>
<rect x="315.0" y="338.9" width="9.0" height="9.0" fill="#7a2222" opacity="0.8"/>
<rect x="369.0" y="338.9" width="9.0" height="9.0" fill="#7a2222" opacity="0.8"/>
<rect x="378.0" y="338.9" width="9.0" height="9.0" fill="#7a2222" opacity="0.8"/>
<rect x="234.0" y="329.9" width="9.0" height="9.0" fill="#7a2222" opacity="0.8"/>
<rect x="243.0" y="329.9" width="9.0" height="9.0" fill="#7a2222" opacity="0.8"/>
<rect x="297.0" y="329.9" width="9.0" height="9.0" fill="#7a2222" opacity="0.8"/>
<rect x="306.0" y="329.9" width="9.0" height="9.0" fill="#7a2222" opacity="0.8"/>
<rect x="360.0" y="329.9" width="9.0" height="9.0" fill="#7a2222" opacity="0.8"/>
<rect x="369.0" y="329.9" width="9.0" height="9.0" fill="#7a2222" opacity="0.8"/>
<rect x="225.0" y="320.9" width="9.0" height="9.0" fill="#7a2222" opacity="0.8"/>
<rect x="234.0" y="320.9" width="9.0" height="9.0" fill="#7a2222" opacity="0.8"/>
<rect x="288.0" y="320.9" width="9.0" height="9.0" fill="#7a2222" opacity="0.8"/>
<rect x="297.0" y="320.9" width="9.0" height="9.0" fill="#7a2222" opacity="0.8"/>
<rect x="351.0" y="320.9" width="9.0" height="9.0" fill="#7a2222" opacity="0.8"/>
<rect x="360.0" y="320.9" width="9.0" height="9.0" fill="#7a2222" opacity="0.8"/>
<rect x="369.0" y="320.9" width="9.0" height="9.0" fill="#7a2222" opacity="0.8"/>
<rect x="216.0" y="311.9" width="9.0" height="9.0" fill="#7a2222" opacity="0.8"/>
<rect x="225.0" y="311.9" width="9.0" height="9.0" fill="#7a2222" opacity="0.8"/>
<rect x="234.0" y="311.9" width="9.0" height="9.0" fill="#7a2222" opacity="0.8"/>
<rect x="279.0" y="311.9" width="9.0" height="9.0" fill="#7a2222" opacity="0.8"/>
<rect x="288.0" y="311.9" width="9.0" height="9.0" fill="#7a2222" opacity="0.8"/>
<rect x="297.0" y="311.9" width="9.0" height="9.0" fill="#7a2222" opacity="0.8"/>
<rect x="342.0" y="311.9" width="9.0" height="9.0" fill="#7a2222" opacity="0.8"/>
<rect x="351.0" y="311.9" width="9.0" height="9.0" fill="#7a2222" opacity="0.8"/>
<rect x="360.0" y="311.9" width="9.0" height="9.0" fill="#7a2222" opacity="0.8"/>
<rect x="207.0" y="302.9" width="9.0" height="9.0" fill="#7a2222" opacity="0.8"/>
<rect x="216.0" y="302.9" width="9.0" height="9.0" fill="#7a2222" opacity="0.8"/>
<rect x="225.0" y="302.9" width="9.0" height="9.0" fill="#7a2222" opacity="0.8"/>
<rect x="270.0" y="302.9" width="9.0" height="9.0" fill="#7a2222" opacity="0.8"/>
<rect x="279.0" y="302.9" width="9.0" height="9.0" fill="#7a2222" opacity="0.8"/>
<rect x="288.0" y="302.9" width="9.0" height="9.0" fill="#7a2222" opacity="0.8"/>
<rect x="333.0" y="302.9" width="9.0" height="9.0" fill="#7a2222" opacity="0.8"/>
<rect x="342.0" y="302.9" width="9.0" height="9.0" fill="#7a2222" opacity="0.8"/>
<rect x="351.0" y="302.9" width="9.0" height="9.0" fill="#7a2222" opacity="0.8"/>
<rect x="198.0" y="293.9" width="9.0" height="9.0" fill="#7a2222" opacity="0.8"/>
<rect x="207.0" y="293.9" width="9.0" height="9.0" fill="#7a2222" opacity="0.8"/>
<rect x="216.0" y="293.9" width="9.0" height="9.0" fill="#7a2222" opacity="0.8"/>
<rect x="270.0" y="293.9" width="9.0" height="9.0" fill="#7a2222" opacity="0.8"/>
<rect x="279.0" y="293.9" width="9.0" height="9.0" fill="#7a2222" opacity="0.8"/>
<rect x="333.0" y="293.9" width="9.0" height="9.0" fill="#7a2222" opacity="0.8"/>
<rect x="342.0" y="293.9" width="9.0" height="9.0" fill="#7a2222" opacity="0.8"/>
<rect x="198.0" y="284.9" width="9.0" height="9.0" fill="#7a2222" opacity="0.8"/>
<rect x="207.0" y="284.9" width="9.0" height="9.0" fill="#7a2222" opacity="0.8"/>
<rect x="261.0" y="284.9" width="9.0" height="9.0" fill="#7a2222" opacity="0.8"/>
<rect x="270.0" y="284.9" width="9.0" height="9.0" fill="#7a2222" opacity="0.8"/>
<rect x="324.0" y="284.9" width="9.0" height="9.0" fill="#7a2222" opacity="0.8"/>
<rect x="333.0" y="284.9" width="9.0" height="9.0" fill="#7a2222" opacity="0.8"/>
<rect x="189.0" y="275.9" width="9.0" height="9.0" fill="#7a2222" opacity="0.8"/>
<rect x="198.0" y="275.9" width="9.0" height="9.0" fill="#7a2222" opacity="0.8"/>
<rect x="252.0" y="275.9" width="9.0" height="9.0" fill="#7a2222" opacity="0.8"/>
<rect x="261.0" y="275.9" width="9.0" height="9.0" fill="#7a2222" opacity="0.8"/>
<rect x="315.0" y="275.9" width="9.0" height="9.0" fill="#7a2222" opacity="0.8"/>
<rect x="324.0" y="275.9" width="9.0" height="9.0" fill="#7a2222" opacity="0.8"/>
<rect x="333.0" y="275.9" width="9.0" height="9.0" fill="#7a2222" opacity="0.8"/>
<rect x="180.0" y="266.9" width="9.0" height="9.0" fill="#7a2222" opacity="0.8"/>
<rect x="189.0" y="266.9" width="9.0" height="9.0" fill="#7a2222" opacity="0.8"/>
<rect x="198.0" y="266.9" width="9.0" height="9.0" fill="#7a2222" opacity="0.8"/>
<rect x="243.0" y="266.9" width="9.0" height="9.0" fill="#7a2222" opacity="0.8"/>
<rect x="252.0" y="266.9" width="9.0" height="9.0" fill="#7a2222" opacity="0.8"/>
<rect x="261.0" y="266.9" width="9.0" height="9.0" fill="#7a2222" opacity="0.8"/>
<rect x="306.0" y="266.9" width="9.0" height="9.0" fill="#7a2222" opacity="0.8"/>
<rect x="315.0" y="266.9" width="9.0" height="9.0" fill="#7a2222" opacity="0.8"/>
<rect x="324.0" y="266.9" width="9.0" height="9.0" fill="#7a2222" opacity="0.8"/>
<rect x="171.0" y="257.9" width="9.0" height="9.0" fill="#7a2222" opacity="0.8"/>
<rect x="180.0" y="257.9" width="9.0" height="9.0" fill="#7a2222" opacity="0.8"/>
<rect x="189.0" y="257.9" width="9.0" height="9.0" fill="#7a2222" opacity="0.8"/>
<rect x="234.0" y="257.9" width="9.0" height="9.0" fill="#7a2222" opacity="0.8"/>
<rect x="243.0" y="257.9" width="9.0" height="9.0" fill="#7a2222" opacity="0.8"/>
<rect x="252.0" y="257.9" width="9.0" height="9.0" fill="#7a2222" opacity="0.8"/>
<rect x="297.0" y="257.9" width="9.0" height="9.0" fill="#7a2222" opacity="0.8"/>
<rect x="306.0" y="257.9" width="9.0" height="9.0" fill="#7a2222" opacity="0.8"/>
<rect x="315.0" y="257.9" width="9.0" height="9.0" fill="#7a2222" opacity="0.8"/>
<rect x="162.0" y="248.9" width="9.0" height="9.0" fill="#7a2222" opacity="0.8"/>
<rect x="171.0" y="248.9" width="9.0" height="9.0" fill="#7a2222" opacity="0.8"/>
<rect x="180.0" y="248.9" width="9.0" height="9.0" fill="#7a2222" opacity="0.8"/>
<rect x="234.0" y="248.9" width="9.0" height="9.0" fill="#7a2222" opacity="0.8"/>
<rect x="243.0" y="248.9" width="9.0" height="9.0" fill="#7a2222" opacity="0.8"/>
<rect x="297.0" y="248.9" width="9.0" height="9.0" fill="#7a2222" opacity="0.8"/>
<rect x="306.0" y="248.9" width="9.0" height="9.0" fill="#7a2222" opacity="0.8"/>
<rect x="162.0" y="239.9" width="9.0" height="9.0" fill="#7a2222" opacity="0.8"/>
<rect x="171.0" y="239.9" width="9.0" height="9.0" fill="#7a2222" opacity="0.8"/>
<rect x="225.0" y="239.9" width="9.0" height="9.0" fill="#7a2222" opacity="0.8"/>
<rect x="234.0" y="239.9" width="9.0" height="9.0" fill="#7a2222" opacity="0.8"/>
<rect x="288.0" y="239.9" width="9.0" height="9.0" fill="#7a2222" opacity="0.8"/>
<rect x="297.0" y="239.9" width="9.0" height="9.0" fill="#7a2222" opacity="0.8"/>
<rect x="153.0" y="230.9" width="9.0" height="9.0" fill="#7a2222" opacity="0.8"/>
<rect x="162.0" y="230.9" width="9.0" height="9.0" fill="#7a2222" opacity="0.8"/>
<rect x="216.0" y="230.9" width="9.0" height="9.0" fill="#7a2222" opacity="0.8"/>
<rect x="225.0" y="230.9" width="9.0" height="9.0" fill="#7a2222" opacity="0.8"/>
<rect x="279.0" y="230.9" width="9.0" height="9.0" fill="#7a2222" opacity="0.8"/>
<rect x="288.0" y="230.9" width="9.0" height="9.0" fill="#7a2222" opacity="0.8"/>
<rect x="297.0" y="230.9" width="9.0" height="9.0" fill="#7a2222" opacity="0.8"/>
<rect x="144.0" y="221.9" width="9.0" height="9.0" fill="#7a2222" opacity="0.8"/>
<rect x="153.0" y="221.9" width="9.0" height="9.0" fill="#7a2222" opacity="0.8"/>
<rect x="162.0" y="221.9" width="9.0" height="9.0" fill="#7a2222" opacity="0.8"/>
<rect x="207.0" y="221.9" width="9.0" height="9.0" fill="#7a2222" opacity="0.8"/>
<rect x="216.0" y="221.9" width="9.0" height="9.0" fill="#7a2222" opacity="0.8"/>
<rect x="225.0" y="221.9" width="9.0" height="9.0" fill="#7a2222" opacity="0.8"/>
<rect x="270.0" y="221.9" width="9.0" height="9.0" fill="#7a2222" opacity="0.8"/>
<rect x="279.0" y="221.9" width="9.0" height="9.0" fill="#7a2222" opacity="0.8"/>
<rect x="288.0" y="221.9" width="9.0" height="9.0" fill="#7a2222" opacity="0.8"/>
<rect x="135.0" y="212.9" width="9.0" height="9.0" fill="#7a2222" opacity="0.8"/>
<rect x="144.0" y="212.9" width="9.0" height="9.0" fill="#7a2222" opacity="0.8"/>
<rect x="153.0" y="212.9" width="9.0" height="9.0" fill="#7a2222" opacity="0.8"/>
<rect x="198.0" y="212.9" width="9.0" height="9.0" fill="#7a2222" opacity="0.8"/>
<rect x="207.0" y="212.9" width="9.0" height="9.0" fill="#7a2222" opacity="0.8"/>
<rect x="216.0" y="212.9" width="9.0" height="9.0" fill="#7a2222" opacity="0.8"/>
<rect x="261.0" y="212.9" width="9.0" height="9.0" fill="#7a2222" opacity="0.8"/>
<rect x="270.0" y="212.9" width="9.0" height="9.0" fill="#7a2222" opacity="0.8"/>
<rect x="279.0" y="212.9" width="9.0" height="9.0" fill="#7a2222" opacity="0.8"/>
<rect x="126.0" y="203.9" width="9.0" height="9.0" fill="#7a2222" opacity="0.8"/>
<rect x="135.0" y="203.9" width="9.0" height="9.0" fill="#7a2222" opacity="0.8"/>
<rect x="144.0" y="203.9" width="9.0" height="9.0" fill="#7a2222" opacity="0.8"/>
<rect x="198.0" y="203.9" width="9.0" height="9.0" fill="#7a2222" opacity="0.8"/>
<rect x="207.0" y="203.9" width="9.0" height="9.0" fill="#7a2222" opacity="0.8"/>
<rect x="261.0" y="203.9" width="9.0" height="9.0" fill="#7a2222" opacity="0.8"/>
<rect x="270.0" y="203.9" width="9.0" height="9.0" fill="#7a2222" opacity="0.8"/>
<rect x="126.0" y="194.9" width="9.0" height="9.0" fill="#7a2222" opacity="0.8"/>
<rect x="135.0" y="194.9" width="9.0" height="9.0" fill="#7a2222" opacity="0.8"/>
<rect x="189.0" y="194.9" width="9.0" height="9.0" fill="#7a2222" opacity="0.8"/>
<rect x="198.0" y="194.9" width="9.0" height="9.0" fill="#7a2222" opacity="0.8"/>
<rect x="252.0" y="194.9" width="9.0" height="9.0" fill="#7a2222" opacity="0.8"/>
<rect x="261.0" y="194.9" width="9.0" height="9.0" fill="#7a2222" opacity="0.8"/>
<rect x="117.0" y="185.9" width="9.0" height="9.0" fill="#7a2222" opacity="0.8"/>
<rect x="126.0" y="185.9" width="9.0" height="9.0" fill="#7a2222" opacity="0.8"/>
<rect x="180.0" y="185.9" width="9.0" height="9.0" fill="#7a2222" opacity="0.8"/>
<rect x="189.0" y="185.9" width="9.0" height="9.0" fill="#7a2222" opacity="0.8"/>
<rect x="243.0" y="185.9" width="9.0" height="9.0" fill="#7a2222" opacity="0.8"/>
<rect x="252.0" y="185.9" width="9.0" height="9.0" fill="#7a2222" opacity="0.8"/>
<rect x="261.0" y="185.9" width="9.0" height="9.0" fill="#7a2222" opacity="0.8"/>
<rect x="108.0" y="176.9" width="9.0" height="9.0" fill="#7a2222" opacity="0.8"/>
<rect x="117.0" y="176.9" width="9.0" height="9.0" fill="#7a2222" opacity="0.8"/>
<rect x="126.0" y="176.9" width="9.0" height="9.0" fill="#7a2222" opacity="0.8"/>
<rect x="171.0" y="176.9" width="9.0" height="9.0" fill="#7a2222" opacity="0.8"/>
<rect x="180.0" y="176.9" width="9.0" height="9.0" fill="#7a2222" opacity="0.8"/>
<rect x="189.0" y="176.9" width="9.0" height="9.0" fill="#7a2222" opacity="0.8"/>
<rect x="234.0" y="176.9" width="9.0" height="9.0" fill="#7a2222" opacity="0.8"/>
<rect x="243.0" y="176.9" width="9.0" height="9.0" fill="#7a2222" opacity="0.8"/>
<rect x="252.0" y="176.9" width="9.0" height="9.0" fill="#7a2222" opacity="0.8"/>
<rect x="99.0" y="167.9" width="9.0" height="9.0" fill="#7a2222" opacity="0.8"/>
<rect x="108.0" y="167.9" width="9.0" height="9.0" fill="#7a2222" opacity="0.8"/>
<rect x="117.0" y="167.9" width="9.0" height="9.0" fill="#7a2222" opacity="0.8"/>
<rect x="162.0" y="167.9" width="9.0" height="9.0" fill="#7a2222" opacity="0.8"/>
<rect x="171.0" y="167.9" width="9.0" height="9.0" fill="#7a2222" opacity="0.8"/>
<rect x="180.0" y="167.9" width="9.0" height="9.0" fill="#7a2222" opacity="0.8"/>
<rect x="234.0" y="167.9" width="9.0" height="9.0" fill="#7a2222" opacity="0.8"/>
<rect x="243.0" y="167.9" width="9.0" height="9.0" fill="#7a2222" opacity="0.8"/>
<rect x="90.0" y="158.9" width="9.0" height="9.0" fill="#7a2222" opacity="0.8"/>
<rect x="99.0" y="158.9" width="9.0" height="9.0" fill="#7a2222" opacity="0.8"/>
<rect x="108.0" y="158.9" width="9.0" height="9.0" fill="#7a2222" opacity="0.8"/>
<rect x="162.0" y="158.9" width="9.0" height="9.0" fill="#7a2222" opacity="0.8"/>
<rect x="171.0" y="158.9" width="9.0" height="9.0" fill="#7a2222" opacity="0.8"/>
<rect x="225.0" y="158.9" width="9.0" height="9.0" fill="#7a2222" opacity="0.8"/>
<rect x="234.0" y="158.9" width="9.0" height="9.0" fill="#7a2222" opacity="0.8"/>
<rect x="90.0" y="149.9" width="9.0" height="9.0" fill="#7a2222" opacity="0.8"/>
<rect x="99.0" y="149.9" width="9.0" height="9.0" fill="#7a2222" opacity="0.8"/>
<rect x="153.0" y="149.9" width="9.0" height="9.0" fill="#7a2222" opacity="0.8"/>
<rect x="162.0" y="149.9" width="9.0" height="9.0" fill="#7a2222" opacity="0.8"/>
<rect x="216.0" y="149.9" width="9.0" height="9.0" fill="#7a2222" opacity="0.8"/>
<rect x="225.0" y="149.9" width="9.0" height="9.0" fill="#7a2222" opacity="0.8"/>
<rect x="81.0" y="140.9" width="9.0" height="9.0" fill="#7a2222" opacity="0.8"/>
<rect x="90.0" y="140.9" width="9.0" height="9.0" fill="#7a2222" opacity="0.8"/>
<rect x="144.0" y="140.9" width="9.0" height="9.0" fill="#7a2222" opacity="0.8"/>
<rect x="153.0" y="140.9" width="9.0" height="9.0" fill="#7a2222" opacity="0.8"/>
<rect x="207.0" y="140.9" width="9.0" height="9.0" fill="#7a2222" opacity="0.8"/>
<rect x="216.0" y="140.9" width="9.0" height="9.0" fill="#7a2222" opacity="0.8"/>
<rect x="225.0" y="140.9" width="9.0" height="9.0" fill="#7a2222" opacity="0.8"/>
<rect x="72.0" y="131.9" width="9.0" height="9.0" fill="#7a2222" opacity="0.8"/>
<rect x="81.0" y="131.9" width="9.0" height="9.0" fill="#7a2222" opacity="0.8"/>
<rect x="90.0" y="131.9" width="9.0" height="9.0" fill="#7a2222" opacity="0.8"/>
<rect x="135.0" y="131.9" width="9.0" height="9.0" fill="#7a2222" opacity="0.8"/>
<rect x="144.0" y="131.9" width="9.0" height="9.0" fill="#7a2222" opacity="0.8"/>
<rect x="198.0" y="131.9" width="9.0" height="9.0" fill="#7a2222" opacity="0.8"/>
<rect x="207.0" y="131.9" width="9.0" height="9.0" fill="#7a2222" opacity="0.8"/>
<rect x="216.0" y="131.9" width="9.0" height="9.0" fill="#7a2222" opacity="0.8"/>
<rect x="63.0" y="122.9" width="9.0" height="9.0" fill="#7a2222" opacity="0.8"/>
<rect x="72.0" y="122.9" width="9.0" height="9.0" fill="#7a2222" opacity="0.8"/>
<rect x="81.0" y="122.9" width="9.0" height="9.0" fill="#7a2222" opacity="0.8"/>
<rect x="126.0" y="122.9" width="9.0" height="9.0" fill="#7a2222" opacity="0.8"/>
<rect x="198.0" y="122.9" width="9.0" height="9.0" fill="#7a2222" opacity="0.8"/>
<rect x="207.0" y="122.9" width="9.0" height="9.0" fill="#7a2222" opacity="0.8"/>
<rect x="63.0" y="113.9" width="9.0" height="9.0" fill="#7a2222" opacity="0.8"/>
<rect x="72.0" y="113.9" width="9.0" height="9.0" fill="#7a2222" opacity="0.8"/>
<rect x="180.0" y="113.9" width="9.0" height="9.0" fill="#7a2222" opacity="0.8"/>
<rect x="189.0" y="113.9" width="9.0" height="9.0" fill="#7a2222" opacity="0.8"/>
<rect x="198.0" y="113.9" width="9.0" height="9.0" fill="#7a2222" opacity="0.8"/>
<rect x="54.0" y="104.9" width="9.0" height="9.0" fill="#7a2222" opacity="0.8"/>
<rect x="63.0" y="104.9" width="9.0" height="9.0" fill="#7a2222" opacity="0.8"/>
<rect x="171.0" y="104.9" width="9.0" height="9.0" fill="#7a2222" opacity="0.8"/>
<rect x="180.0" y="104.9" width="9.0" height="9.0" fill="#7a2222" opacity="0.8"/>
<rect x="189.0" y="104.9" width="9.0" height="9.0" fill="#7a2222" opacity="0.8"/>
<rect x="45.0" y="95.9" width="9.0" height="9.0" fill="#7a2222" opacity="0.8"/>
<rect x="54.0" y="95.9" width="9.0" height="9.0" fill="#7a2222" opacity="0.8"/>
<rect x="63.0" y="95.9" width="9.0" height="9.0" fill="#7a2222" opacity="0.8"/>
<rect x="153.0" y="95.9" width="9.0" height="9.0" fill="#7a2222" opacity="0.8"/>
<rect x="162.0" y="95.9" width="9.0" height="9.0" fill="#7a2222" opacity="0.8"/>
<rect x="171.0" y="95.9" width="9.0" height="9.0" fill="#7a2222" opacity="0.8"/>
<rect x="180.0" y="95.9" width="9.0" height="9.0" fill="#7a2222" opacity="0.8"/>
<rect x="54.0" y="86.9" width="9.0" height="9.0" fill="#7a2222" opacity="0.8"/>
<rect x="63.0" y="86.9" width="9.0" height="9.0" fill="#7a2222" opacity="0.8"/>
<rect x="72.0" y="86.9" width="9.0" height="9.0" fill="#7a2222" opacity="0.8"/>
<rect x="144.0" y="86.9" width="9.0" height="9.0" fill="#7a2222" opacity="0.8"/>
<rect x="153.0" y="86.9" width="9.0" height="9.0" fill="#7a2222" opacity="0.8"/>
<rect x="162.0" y="86.9" width="9.0" height="9.0" fill="#7a2222" opacity="0.8"/>
<rect x="63.0" y="77.9" width="9.0" height="9.0" fill="#7a2222" opacity="0.8"/>
<rect x="72.0" y="77.9" width="9.0" height="9.0" fill="#7a2222" opacity="0.8"/>
<rect x="81.0" y="77.9" width="9.0" height="9.0" fill="#7a2222" opacity="0.8"/>
<rect x="126.0" y="77.9" width="9.0" height="9.0" fill="#7a2222" opacity="0.8"/>
<rect x="135.0" y="77.9" width="9.0" height="9.0" fill="#7a2222" opacity="0.8"/>
<rect x="144.0" y="77.9" width="9.0" height="9.0" fill="#7a2222" opacity="0.8"/>
<rect x="153.0" y="77.9" width="9.0" height="9.0" fill="#7a2222" opacity="0.8"/>
<rect x="72.0" y="68.9" width="9.0" height="9.0" fill="#7a2222" opacity="0.8"/>
<rect x="81.0" y="68.9" width="9.0" height="9.0" fill="#7a2222" opacity="0.8"/>
<rect x="90.0" y="68.9" width="9.0" height="9.0" fill="#7a2222" opacity="0.8"/>
<rect x="117.0" y="68.9" width="9.0" height="9.0" fill="#7a2222" opacity="0.8"/>
<rect x="126.0" y="68.9" width="9.0" height="9.0" fill="#7a2222" opacity="0.8"/>
<rect x="135.0" y="68.9" width="9.0" height="9.0" fill="#7a2222" opacity="0.8"/>
<rect x="81.0" y="59.9" width="9.0" height="9.0" fill="#7a2222" opacity="0.8"/>
<rect x="90.0" y="59.9" width="9.0" height="9.0" fill="#7a2222" opacity="0.8"/>
<rect x="99.0" y="59.9" width="9.0" height="9.0" fill="#7a2222" opacity="0.8"/>
<rect x="108.0" y="59.9" width="9.0" height="9.0" fill="#7a2222" opacity="0.8"/>
<rect x="117.0" y="59.9" width="9.0" height="9.0" fill="#7a2222" opacity="0.8"/>
<rect x="126.0" y="59.9" width="9.0" height="9.0" fill="#7a2222" opacity="0.8"/>
<rect x="90.0" y="50.9" width="9.0" height="9.0" fill="#7a2222" opacity="0.8"/>
<rect x="99.0" y="50.9" width="9.0" height="9.0" fill="#7a2222" opacity="0.8"/>
<rect x="108.0" y="50.9" width="9.0" height="9.0" fill="#7a2222" opacity="0.8"/>
<polygon points="306.6,826.3 287.9,803.8 278.1,786.5 106.6,567.7 107.4,531.8 219.6,437.2 241.0,348.1 45.0,101.2 105.3,45.0 204.2,111.4 592.0,600.2 650.1,739.4 540.2,851.9 388.0,839.0 331.7,829.6 306.6,826.3" fill="none" stroke="#39d353" stroke-width="2"/>
<polyline points="343.6,781.4 338.1,774.4 332.6,767.4 327.2,760.3 321.7,753.3 316.2,746.3 310.7,739.3 305.2,732.3 299.8,725.3 294.3,718.3 288.8,711.2 283.3,704.2 277.8,697.2 272.4,690.2 266.9,683.2 261.4,676.2 255.9,669.1 250.4,662.1 244.9,655.1 239.5,648.1 234.0,641.1 228.5,634.1 223.0,627.1 217.5,620.0 212.1,613.0 206.6,606.0 201.1,599.0 195.6,592.0 190.1,585.0 184.7,577.9 179.2,570.9 173.7,563.9 168.2,556.9 162.7,549.9 162.2,549.2 161.6,548.4 161.1,547.7 160.7,546.9 160.6,546.8 160.2,546.0 159.9,545.1 159.6,544.3 159.5,543.4 159.4,542.5 159.3,541.6 159.4,540.7 159.5,539.8 159.7,538.9 160.0,538.1 160.3,537.2 160.7,536.4 161.2,535.7 161.4,535.4 161.9,534.7 162.5,534.0 163.1,533.4 163.8,532.8 163.9,532.7 164.5,532.0 165.2,531.4 165.8,530.8 166.4,530.1 167.1,529.5 167.7,528.9 168.4,528.2 168.9,527.8 169.5,527.1 170.2,526.5 170.9,525.9 171.6,525.4 171.7,525.3 172.5,524.8 173.3,524.4 174.1,524.1 175.0,523.8 175.8,523.6 176.7,523.5 177.6,523.4 178.5,523.4 179.4,523.5 180.3,523.7 181.2,523.9 182.0,524.2 182.8,524.6 183.6,525.1 184.3,525.6 185.0,526.2 185.1,526.2 185.7,526.8 186.3,527.5 186.9,528.2 187.4,528.9 187.5,529.0 187.5,529.0 193.0,536.0 198.5,543.1 204.0,550.1 209.5,557.1 215.0,564.2 220.5,571.2 226.0,578.2 231.5,585.3 237.0,592.3 242.5,599.4 248.0,606.4 253.5,613.4 259.0,620.5 264.5,627.5 270.0,634.5 275.5,641.6 281.0,648.6 286.5,655.6 292.0,662.7 297.5,669.7 303.0,676.8 308.5,683.8 314.0,690.8 319.5,697.9 325.0,704.9 330.5,711.9 336.0,719.0 341.5,726.0 347.0,733.0 352.4,740.1 357.9,747.1 363.4,754.2 368.9,761.2 374.4,768.2 379.9,775.3 385.4,782.3 390.9,789.3 391.5,790.0 392.0,790.8 392.5,791.5 393.0,792.3 393.1,792.4 393.5,793.2 393.8,794.1 393.8,794.1 394.0,795.0 394.2,795.9 394.4,796.8 394.5,797.7 394.5,797.8 394.7,798.7 394.8,799.3 394.9,800.2 395.0,801.1 395.2,802.0 395.5,802.9 395.5,803.0 395.8,803.9 396.2,804.7 396.7,805.4 397.2,806.2 397.7,806.9 398.4,807.5 399.1,808.1 399.8,808.6 400.6,809.1 401.4,809.5 402.2,809.8 403.1,810.1 403.9,810.3 404.8,810.4 405.7,810.5 406.6,810.4 407.5,810.3 408.4,810.1 409.3,809.9 410.1,809.5 410.9,809.2 411.7,808.7 412.4,808.2 413.1,807.6 413.7,806.9 414.3,806.3 414.8,805.5 415.3,804.8 415.7,803.9 416.0,803.1 416.3,802.2 416.4,801.4 416.5,800.5 416.6,799.6 416.5,798.7 416.4,797.8 416.2,796.9 415.9,796.0 415.6,795.2 415.3,794.6 414.9,793.8 414.3,793.0 413.8,792.3 413.3,791.6 413.2,791.5 413.2,791.5 407.7,784.5 402.2,777.5 396.8,770.5 391.3,763.5 385.8,756.5 380.4,749.5 374.9,742.5 369.4,735.5 364.0,728.5 358.5,721.5 353.0,714.5 347.6,707.5 342.1,700.5 336.6,693.5 331.2,686.5 325.7,679.5 320.2,672.5 314.7,665.5 309.3,658.5 303.8,651.5 298.3,644.5 292.9,637.5 287.4,630.5 281.9,623.5 276.5,616.5 271.0,609.5 265.5,602.5 260.1,595.5 254.6,588.5 249.1,581.5 243.7,574.5 238.2,567.5 232.7,560.5 227.3,553.5 221.8,546.5 216.3,539.5 210.9,532.5 205.4,525.5 199.9,518.5 199.4,517.8 198.8,517.1 198.2,516.5 197.6,515.8 197.4,515.7 197.2,515.5 196.5,514.9 195.7,514.4 195.0,514.0 194.2,513.5 194.1,513.4 193.3,513.0 192.5,512.5 191.8,512.0 191.1,511.5 190.9,511.4 190.3,510.8 189.7,510.1 189.1,509.4 188.6,508.6 188.2,507.8 187.8,507.0 187.6,506.2 187.3,505.3 187.2,504.4 187.1,503.5 187.1,502.6 187.2,501.7 187.4,500.8 187.6,499.9 187.9,499.1 188.3,498.3 188.7,497.5 189.2,496.7 189.8,496.0 190.4,495.4 191.0,494.8 191.8,494.2 192.5,493.8 193.3,493.3 194.2,493.0 195.0,492.7 195.9,492.5 196.8,492.4 197.7,492.3 198.6,492.3 199.5,492.4 200.3,492.6 201.2,492.8 202.1,493.1 202.9,493.5 203.7,494.0 204.4,494.5 205.1,495.0 205.7,495.7 206.3,496.3 206.9,497.1 207.3,497.8 207.5,498.0 207.8,498.8 208.2,499.7 208.5,500.5 208.8,501.4 208.8,501.5 209.1,502.4 209.4,503.2 209.7,504.1 210.1,504.9 210.2,505.0 210.2,505.0 210.6,505.8 211.1,506.5 211.7,507.3 212.2,508.0 212.3,508.1 212.3,508.1 217.8,515.1 223.2,522.0 228.6,529.0 234.1,535.9 239.5,542.9 244.9,549.8 250.4,556.8 255.8,563.8 261.2,570.7 266.7,577.7 272.1,584.6 277.5,591.6 283.0,598.5 288.4,605.5 293.9,612.5 299.3,619.4 304.7,626.4 310.2,633.3 315.6,640.3 321.0,647.2 326.5,654.2 331.9,661.2 337.3,668.1 342.8,675.1 348.2,682.0 353.6,689.0 359.1,695.9 364.5,702.9 370.0,709.9 375.4,716.8 380.8,723.8 386.3,730.7 391.7,737.7 397.1,744.7 402.6,751.6 408.0,758.6 413.4,765.5 418.9,772.5 424.3,779.4 429.7,786.4 435.2,793.4 435.7,794.1 436.3,794.8 436.8,795.5 437.2,796.3 437.3,796.4 437.7,797.2 438.0,798.1 438.2,798.6 438.4,799.4 438.5,800.3 438.7,801.2 438.8,802.1 438.8,802.3 438.8,802.6 438.9,803.5 439.0,804.4 439.2,805.3 439.4,806.2 439.4,806.3 439.7,807.2 440.0,808.0 440.5,808.8 440.9,809.5 441.5,810.3 442.1,810.9 442.7,811.5 443.4,812.1 444.2,812.6 445.0,813.0 445.8,813.4 446.7,813.7 447.5,813.9 448.4,814.1 449.3,814.2 450.2,814.2 451.1,814.1 452.0,813.9 452.9,813.7 453.7,813.4 454.5,813.1 455.3,812.6 456.1,812.2 456.8,811.6 457.5,811.0 458.1,810.3 458.6,809.6 459.1,808.9 459.5,808.1 459.9,807.2 460.2,806.4 460.4,805.5 460.5,804.6 460.6,803.7 460.6,802.8 460.5,801.9 460.3,801.0 460.1,800.2 459.8,799.3 459.4,798.5 459.3,798.3 458.9,797.5 458.4,796.8 457.8,796.0 457.3,795.3 457.2,795.2 457.2,795.2 451.7,788.1 446.1,781.0 440.6,774.0 435.1,766.9 429.5,759.8 424.0,752.7 418.4,745.6 412.9,738.5 407.4,731.4 401.8,724.4 396.3,717.3 390.8,710.2 385.2,703.1 379.7,696.0 374.2,688.9 368.6,681.9 363.1,674.8 357.6,667.7 352.0,660.6 346.5,653.5 341.0,646.4 335.4,639.3 329.9,632.3 324.4,625.2 318.8,618.1 313.3,611.0 307.7,603.9 302.2,596.8 296.7,589.8 291.1,582.7 285.6,575.6 280.1,568.5 274.5,561.4 269.0,554.3 263.5,547.2 257.9,540.2 252.4,533.1 246.9,526.0 241.3,518.9 235.8,511.8 230.3,504.7 224.7,497.7 224.2,496.9 223.6,496.2 223.0,495.6 222.4,494.9 222.2,494.8 222.0,494.6 221.3,494.1 220.5,493.5 219.8,493.1 219.0,492.6 218.9,492.5 218.1,492.1 217.3,491.6 216.6,491.1 215.9,490.6 215.7,490.5 215.1,489.9 214.5,489.2 213.9,488.5 213.4,487.7 213.0,486.9 212.6,486.1 212.4,485.3 212.1,484.4 212.0,483.5 211.9,482.6 211.9,481.7 212.0,480.8 212.2,479.9 212.4,479.1 212.7,478.2 213.1,477.4 213.5,476.6 214.0,475.8 214.6,475.1 215.2,474.5 215.8,473.9 216.6,473.3 217.3,472.9 218.1,472.4 218.9,472.1 219.8,471.8 220.7,471.6 221.6,471.5 222.5,471.4 223.4,471.4 224.3,471.5 225.1,471.7 226.0,471.9 226.9,472.2 227.7,472.6 228.5,473.1 229.2,473.6 229.9,474.1 230.5,474.8 231.1,475.5 231.7,476.2 232.1,476.9 232.2,477.1 232.6,478.0 233.0,478.8 233.3,479.6 233.6,480.5 233.6,480.6 233.9,481.5 234.2,482.3 234.5,483.2 234.9,484.0 235.0,484.1 235.0,484.1 235.4,484.9 235.9,485.7 236.5,486.4 237.0,487.1 237.1,487.2 237.1,487.2 242.6,494.2 248.1,501.3 253.6,508.3 259.1,515.4 264.6,522.4 270.1,529.5 275.6,536.5 281.1,543.5 286.6,550.6 292.1,557.6 297.6,564.7 303.1,571.7 308.6,578.8 314.1,585.8 319.6,592.8 325.1,599.9 330.6,606.9 336.2,614.0 341.7,621.0 347.2,628.1 352.7,635.1 358.2,642.1 363.7,649.2 369.2,656.2 374.7,663.3 380.2,670.3 385.7,677.4 391.2,684.4 396.7,691.4 402.2,698.5 407.7,705.5 413.2,712.6 418.7,719.6 424.2,726.6 429.7,733.7 435.2,740.7 440.7,747.8 446.2,754.8 451.7,761.9 457.2,768.9 462.7,775.9 468.2,783.0 473.7,790.0 479.2,797.1 479.8,797.8 480.3,798.5 480.8,799.2 481.3,800.0 481.3,800.2 481.7,801.0 482.0,801.8 482.2,802.3 482.4,803.2 482.6,804.1 482.7,804.9 482.8,805.8 482.8,806.0 482.8,806.3 482.9,807.2 483.0,808.1 483.2,809.0 483.4,809.9 483.4,810.0 483.7,810.9 484.1,811.7 484.5,812.5 485.0,813.3 485.5,814.0 486.1,814.6 486.8,815.3 487.5,815.8 488.2,816.3 489.0,816.8 489.8,817.1 490.7,817.4 491.5,817.6 492.4,817.8 493.3,817.9 494.2,817.9 495.1,817.8 496.0,817.7 496.9,817.4 497.7,817.2 498.6,816.8 499.4,816.4 500.1,815.9 500.8,815.3 501.5,814.7 502.1,814.0 502.6,813.3 503.1,812.6 503.5,811.8 503.9,811.0 504.2,810.1 504.4,809.2 504.5,808.3 504.6,807.4 504.6,806.5 504.5,805.6 504.4,804.8 504.1,803.9 503.8,803.0 503.5,802.2 503.3,802.0 502.9,801.2 502.4,800.5 501.9,799.8 501.3,799.0 501.2,798.9 501.2,798.9 495.7,791.9 490.3,784.9 484.8,777.9 479.3,770.9 473.9,763.9 468.4,756.9 462.9,749.9 457.4,742.9 452.0,735.9 446.5,728.9 441.0,721.9 435.6,714.9 430.1,707.9 424.6,700.9 419.1,693.9 413.7,686.9 408.2,679.9 402.7,672.9 397.3,665.9 391.8,658.9 386.3,651.9 380.8,644.8 375.4,637.8 369.9,630.8 364.4,623.8 358.9,616.8 353.5,609.8 348.0,602.8 342.5,595.8 337.1,588.8 331.6,581.8 326.1,574.8 320.6,567.8 315.2,560.8 309.7,553.8 304.2,546.8 298.8,539.8 293.3,532.8 287.8,525.8 282.3,518.8 276.9,511.8 271.4,504.8 265.9,497.8 260.5,490.8 255.0,483.8 249.5,476.8 249.0,476.1 248.4,475.4 247.8,474.7 247.1,474.0 247.0,473.9 246.8,473.7 246.1,473.2 245.3,472.7 244.6,472.2 243.8,471.7 243.7,471.6 242.9,471.2 242.1,470.7 241.4,470.2 240.7,469.7 240.5,469.6 239.9,469.0 239.3,468.3 238.7,467.6 238.2,466.8 237.8,466.0 237.4,465.2 237.1,464.4 236.9,463.5 236.8,462.6 236.7,461.7 236.7,460.8 236.8,459.9 237.0,459.0 237.2,458.2 237.5,457.3 237.9,456.5 238.3,455.7 238.8,455.0 239.3,454.3 240.0,453.6 240.6,453.0 241.4,452.5 242.1,452.0 242.9,451.6 243.7,451.2 244.6,450.9 245.5,450.7 246.4,450.6 247.3,450.5 248.2,450.5 249.1,450.6 249.9,450.8 250.8,451.0 251.6,451.4 252.5,451.7 253.2,452.2 254.0,452.7 254.7,453.3 255.3,453.9 255.9,454.6 256.5,455.3 256.9,456.1 257.0,456.3 257.4,457.1 257.8,457.9 258.1,458.7 258.4,459.6 258.4,459.7 258.7,460.6 259.0,461.4 259.3,462.3 259.7,463.1 259.8,463.2 259.8,463.2 260.2,464.0 260.7,464.8 261.3,465.5 261.8,466.2 261.9,466.3 261.9,466.3 267.4,473.4 273.0,480.5 278.5,487.6 284.1,494.7 289.6,501.8 295.1,508.8 300.7,515.9 306.2,523.0 311.8,530.1 317.3,537.2 322.8,544.3 328.4,551.4 333.9,558.5 339.4,565.6 345.0,572.6 350.5,579.7 356.1,586.8 361.6,593.9 367.1,601.0 372.7,608.1 378.2,615.2 383.7,622.3 389.3,629.3 394.8,636.4 400.4,643.5 405.9,650.6 411.4,657.7 417.0,664.8 422.5,671.9 428.0,679.0 433.6,686.1 439.1,693.1 444.7,700.2 450.2,707.3 455.7,714.4 461.3,721.5 466.8,728.6 472.4,735.7 477.9,742.8 483.4,749.9 489.0,756.9 494.5,764.0 500.0,771.1 505.6,778.2 511.1,785.3 516.7,792.4 522.2,799.5 522.7,800.2 523.3,800.9 523.8,801.6 524.2,802.3 524.6,803.1 525.0,804.0 525.3,804.8 525.6,805.6 525.9,806.4 526.3,807.2 526.6,808.1 527.1,808.9 527.1,809.0 527.6,809.7 528.2,810.5 528.8,811.1 529.4,811.7 530.2,812.3 530.9,812.8 531.7,813.2 532.5,813.6 533.4,813.9 534.2,814.1 535.1,814.2 536.0,814.3 536.9,814.3 537.8,814.2 538.7,814.1 539.6,813.8 540.4,813.5 541.3,813.2 542.0,812.7 542.8,812.2 543.5,811.7 544.2,811.1 544.8,810.4 545.3,809.7 545.8,808.9 546.2,808.1 546.5,807.3 546.8,806.4 547.0,805.6 547.2,804.7 547.2,803.8 547.2,802.9 547.1,802.0 547.0,801.1 546.7,800.2 546.4,799.4 546.0,798.6 545.6,797.8 545.1,797.0 544.5,796.3 543.9,795.7 543.2,795.1 543.1,795.0 542.4,794.5 541.6,794.0 540.8,793.5 540.0,793.1 539.9,793.0 539.1,792.6 538.3,792.2 537.5,791.7 536.8,791.2 536.7,791.1 536.1,790.6 535.5,790.0 534.8,789.3 534.3,788.6 533.7,787.9 533.6,787.8 533.6,787.8 528.1,780.7 522.6,773.6 517.0,766.5 511.5,759.4 506.0,752.4 500.4,745.3 494.9,738.2 489.4,731.1 483.8,724.0 478.3,717.0 472.7,709.9 467.2,702.8 461.7,695.7 456.1,688.6 450.6,681.5 445.1,674.5 439.5,667.4 434.0,660.3 428.5,653.2 422.9,646.1 417.4,639.0 411.9,632.0 406.3,624.9 400.8,617.8 395.3,610.7 389.7,603.6 384.2,596.5 378.7,589.5 373.1,582.4 367.6,575.3 362.1,568.2 356.5,561.1 351.0,554.0 345.5,547.0 339.9,539.9 334.4,532.8 328.9,525.7 323.3,518.6 317.8,511.5 312.3,504.5 306.7,497.4 301.2,490.3 295.7,483.2 290.1,476.1 284.6,469.0 279.1,462.0 273.5,454.9 268.0,447.8 267.4,447.1 266.9,446.4 266.4,445.6 265.9,444.8 265.9,444.7 265.5,443.9 265.2,443.1 264.9,442.2 264.9,442.1 264.7,441.2 264.6,440.3 264.5,439.4 264.5,438.5 264.5,438.4 264.4,437.5 264.4,436.6 264.3,435.7 264.3,434.8 264.2,433.9 264.2,433.0 264.1,432.1 264.1,431.2 264.0,430.3 264.0,429.4 263.9,428.5 263.9,427.6 263.8,426.7 263.8,425.8 263.7,424.9 263.7,424.0 263.6,423.1 263.6,422.2 263.5,421.3 263.5,420.4 263.4,419.5 263.4,418.6 263.3,417.7 263.3,416.8 263.2,415.9 263.2,415.0 263.1,414.1 263.1,413.2 263.0,412.3 263.0,411.4 262.9,410.5 262.9,409.6 262.8,408.7 262.8,407.8 262.7,406.9 262.7,406.0 262.6,405.1 262.6,404.2 262.5,403.3 262.5,402.4 262.4,401.5 262.4,400.6 262.3,399.7 262.3,398.8 262.2,397.9 262.2,397.0 262.1,396.1 262.1,395.2 262.1,395.1 262.0,394.2 262.0,393.3 262.0,392.4 262.1,391.5 262.1,391.4 262.2,390.5 262.4,389.6 262.7,388.7 263.1,387.9 263.5,387.1 264.0,386.4 264.5,385.7 265.2,385.0 265.8,384.4 266.5,383.8 267.3,383.3 268.1,382.9 268.9,382.6 269.8,382.3 270.6,382.1 271.5,381.9 272.4,381.8 273.3,381.8 274.2,381.9 275.1,382.1 276.0,382.3 276.8,382.6 277.6,383.0 278.4,383.4 279.2,383.9 279.9,384.5 280.0,384.6 280.7,385.2 281.3,385.9 281.9,386.6 282.4,387.3 282.5,387.4 282.5,387.4 288.0,394.4 293.5,401.5 299.0,408.5 304.5,415.5 309.9,422.5 315.4,429.6 320.9,436.6 326.4,443.6 331.9,450.6 337.4,457.7 342.9,464.7 348.4,471.7 353.9,478.7 359.3,485.8 364.8,492.8 370.3,499.8 375.8,506.8 381.3,513.9 386.8,520.9 392.3,527.9 397.8,534.9 403.2,542.0 408.7,549.0 414.2,556.0 419.7,563.0 425.2,570.1 430.7,577.1 436.2,584.1 441.7,591.1 447.2,598.2 452.6,605.2 458.1,612.2 463.6,619.2 469.1,626.3 474.6,633.3 480.1,640.3 485.6,647.3 491.1,654.4 496.6,661.4 502.0,668.4 507.5,675.4 513.0,682.5 518.5,689.5 524.0,696.5 529.5,703.5 535.0,710.6 540.5,717.6 545.9,724.6 551.4,731.6 556.9,738.7 562.4,745.7 567.9,752.7 568.5,753.4 569.0,754.1 569.6,754.8 570.3,755.4 570.4,755.5 571.0,756.0 571.7,756.5 572.5,757.0 573.2,757.5 574.0,757.9 574.2,758.0 575.0,758.4 575.7,758.8 576.5,759.3 577.2,759.8 577.4,759.9 578.0,760.5 578.7,761.1 579.3,761.8 579.8,762.6 580.2,763.3 580.6,764.1 580.9,765.0 581.2,765.8 581.4,766.7 581.5,767.6 581.5,768.5 581.5,769.4 581.3,770.3 581.2,771.2 580.9,772.1 580.6,772.9 580.1,773.7 579.7,774.5 579.1,775.2 578.6,775.9 577.9,776.5 577.2,777.1 576.5,777.6 575.7,778.0 574.9,778.4 574.0,778.7 573.2,778.9 572.3,779.1 571.4,779.2 570.5,779.2 569.6,779.2 568.7,779.0 567.8,778.8 567.0,778.6 566.1,778.2 565.3,777.8 564.6,777.3 563.9,776.8 563.2,776.2 562.6,775.5 562.0,774.8 561.5,774.1 561.4,773.9 561.0,773.1 560.6,772.3 560.3,771.5 559.9,770.6 559.9,770.5 559.6,769.7 559.2,768.8 558.9,768.0 558.5,767.3 558.0,766.5 557.5,765.8 557.0,765.0 556.5,764.4 556.5,764.4 551.0,757.4 545.5,750.4 540.1,743.4 534.6,736.4 529.1,729.4 523.7,722.4 518.2,715.4 512.7,708.4 507.3,701.4 501.8,694.4 496.3,687.4 490.9,680.4 485.4,673.4 479.9,666.4 474.5,659.4 469.0,652.4 463.5,645.5 458.1,638.5 452.6,631.5 447.1,624.5 441.7,617.5 436.2,610.5 430.7,603.5 425.3,596.5 419.8,589.5 414.3,582.5 408.9,575.5 403.4,568.5 397.9,561.5 392.5,554.5 387.0,547.5 381.5,540.5 376.1,533.5 370.6,526.5 365.1,519.5 359.7,512.5 354.2,505.5 348.7,498.5 343.3,491.5 337.8,484.5 332.3,477.5 326.9,470.5 321.4,463.5 315.9,456.5 310.5,449.5 305.0,442.5 299.5,435.5 294.1,428.5 288.6,421.5 283.1,414.5 277.7,407.5 277.1,406.8 276.6,406.1 276.1,405.6 275.6,404.8 275.0,404.1 274.6,403.6 274.1,402.8 273.5,402.1 273.0,401.4 272.4,400.8 271.7,400.1 271.5,399.9 270.8,399.4 270.1,398.9 269.3,398.4 268.5,398.0 267.7,397.7 266.8,397.4 265.9,397.2 265.1,397.0 264.2,397.0 263.3,396.9 262.4,397.0 261.5,397.1 260.6,397.3 259.7,397.6 258.9,397.9 258.1,398.3 257.3,398.8 256.6,399.3 255.9,399.8 255.2,400.4 254.6,401.1 254.0,401.8 253.5,402.6 253.1,403.3 252.7,404.1 252.4,405.0 252.1,405.9 251.9,406.7 251.8,407.6 251.7,408.5 251.8,409.4 251.8,410.3 252.0,411.2 252.2,412.1 252.5,412.9 252.8,413.8 253.2,414.6 253.7,415.3 254.2,416.1 254.8,416.8 255.4,417.4 256.1,418.0 256.8,418.5 257.6,419.0 258.3,419.4 259.1,419.8 259.9,420.1 260.8,420.4 261.6,420.7 262.5,420.9 262.8,421.0 263.6,421.2 264.5,421.5 265.4,421.8 266.2,422.1 267.0,422.4 267.3,422.5 268.1,423.0 268.8,423.5 269.5,424.0 269.7,424.1 270.3,424.7 270.9,425.4 271.5,426.1 272.1,426.7 272.7,427.5 272.8,427.7 272.8,427.7 278.3,434.6 283.7,441.6 289.2,448.6 294.6,455.5 300.1,462.5 305.5,469.5 310.9,476.4 316.4,483.4 321.8,490.4 327.3,497.4 332.7,504.3 338.2,511.3 343.6,518.3 349.1,525.2 354.5,532.2 359.9,539.2 365.4,546.1 370.8,553.1 376.3,560.1 381.7,567.0 387.2,574.0 392.6,581.0 398.0,587.9 403.5,594.9 408.9,601.9 414.4,608.8 419.8,615.8 425.3,622.8 430.7,629.8 436.2,636.7 441.6,643.7 447.0,650.7 452.5,657.6 457.9,664.6 463.4,671.6 468.8,678.5 474.3,685.5 479.7,692.5 485.2,699.4 490.6,706.4 496.0,713.4 501.5,720.3 506.9,727.3 512.4,734.3 517.8,741.3 523.3,748.2 528.7,755.2 534.2,762.2 539.6,769.1 545.0,776.1 545.6,776.8 546.2,777.5 546.8,778.2 547.4,778.8 547.5,778.9 548.2,779.5 549.0,780.0 549.7,780.4 550.5,780.8 551.4,781.1 552.3,781.4 553.1,781.6 554.0,781.7 554.9,781.7 555.8,781.6 556.7,781.5 557.6,781.3 558.5,781.0 559.3,780.7 560.1,780.3 560.8,779.8 561.6,779.3 561.9,778.9 562.6,778.3 563.2,777.7 563.8,777.0 564.3,776.3 564.4,776.2 565.0,775.4 565.5,774.7 566.1,774.0 566.7,773.3 567.2,772.6 567.8,771.9 568.3,771.2 568.9,770.5 569.5,769.8 570.0,769.1 570.6,768.4 571.1,767.7 571.7,767.0 572.2,766.3 572.8,765.6 573.4,764.9 573.9,764.2 574.5,763.4 575.0,762.7 575.6,762.0 576.2,761.3 576.7,760.6 577.3,759.9 577.8,759.2 578.4,758.5 578.9,757.8 579.3,757.4 579.8,756.7 580.4,756.0 580.9,755.2 581.4,754.5 581.4,754.3 581.8,753.5 582.1,752.7 582.4,751.8 582.6,750.9 582.7,750.0 582.7,749.1 582.7,748.2 582.6,747.3 582.4,746.5 582.1,745.6 581.8,744.8 581.5,744.1 581.0,743.3 580.5,742.6 580.0,741.9 579.4,741.1 579.3,741.0 579.3,741.0 573.8,734.0 568.3,726.9 562.8,719.9 557.3,712.8 551.8,705.8 546.3,698.7 540.8,691.7 535.3,684.6 529.7,677.6 524.2,670.5 518.7,663.5 513.2,656.4 507.7,649.4 502.2,642.3 496.7,635.3 491.2,628.2 485.7,621.2 480.2,614.1 474.7,607.0 469.1,600.0 463.6,592.9 458.1,585.9 452.6,578.8 447.1,571.8 441.6,564.7 436.1,557.7 430.6,550.6 425.1,543.6 419.6,536.5 414.1,529.5 408.5,522.4 403.0,515.4 397.5,508.3 392.0,501.3 386.5,494.2 381.0,487.2 375.5,480.1 370.0,473.1 364.5,466.0 359.0,459.0 353.4,451.9 347.9,444.9 342.4,437.8 336.9,430.8 331.4,423.7 325.9,416.7 320.4,409.6 314.9,402.6 309.4,395.5 303.9,388.5 298.4,381.4 292.8,374.4 287.3,367.3 286.8,366.6 286.2,365.9 285.6,365.2 285.0,364.6 284.4,363.9 284.2,363.8 283.5,363.2 282.7,362.7 281.9,362.2 281.8,362.2 281.0,361.8 280.1,361.5 279.3,361.2 278.4,360.9 277.6,360.7 277.3,360.6 276.4,360.4 275.6,360.1 274.7,359.9 273.9,359.5 273.0,359.2 272.8,359.1 272.0,358.6 271.2,358.1 270.5,357.6 269.9,357.0 269.2,356.3 268.7,355.6 268.2,354.9 267.7,354.1 267.3,353.3 267.0,352.5 266.7,351.6 266.5,350.8 266.3,349.9 266.3,349.0 266.3,348.1 266.3,347.2 266.4,346.3 266.6,345.4 266.9,344.5 267.2,343.7 267.6,342.9 268.1,342.1 268.6,341.4 269.1,340.7 269.8,340.0 270.4,339.4 271.1,338.9 271.9,338.4 272.7,337.9 273.5,337.5 274.3,337.2 275.2,336.9 276.1,336.8 276.9,336.6 277.8,336.6 278.7,336.6 279.6,336.7 280.5,336.8 281.4,337.0 282.3,337.3 283.1,337.7 283.9,338.1 284.7,338.5 285.4,339.1 286.0,339.6 286.7,340.2 287.3,340.9 287.9,341.6 288.4,342.3 289.0,343.0 289.1,343.2 289.7,343.9 290.2,344.6 290.6,345.2 291.2,345.9 291.7,346.6 292.2,347.2 292.2,347.2 292.2,347.2 292.7,347.9 293.3,348.6 293.8,349.4 294.2,350.1 294.3,350.3 294.7,351.1 295.0,351.9 295.2,352.4 295.4,353.3 295.5,354.2 295.7,355.1 295.8,356.0 295.8,356.1 295.9,357.0 295.9,357.9 296.0,358.8 296.1,359.7 296.2,360.6 296.3,361.5 296.4,362.4 296.5,363.3 296.6,364.2 296.7,365.1 296.8,366.0 296.9,366.8 297.0,367.7 297.0,368.6 297.1,369.5 297.2,370.4 297.3,371.3 297.4,372.2 297.5,373.1 297.6,374.0 297.7,374.9 297.8,375.8 297.9,376.7 298.0,377.6 298.0,378.5 298.1,379.4 298.2,380.3 298.3,381.2 298.4,382.1 298.5,383.0 298.6,383.9 298.7,384.8 298.8,385.6 298.9,386.5 299.0,387.4 299.0,388.3 299.1,389.2 299.2,390.1 299.3,391.0 299.4,391.9 299.5,392.8 299.6,393.7 299.7,394.6 299.8,395.5 299.9,396.4 300.0,397.3 300.1,398.2 300.1,399.1 300.2,400.0 300.3,400.9 300.4,401.8 300.5,402.7 300.6,403.6 300.7,404.5 300.8,405.3 300.9,406.2 301.0,407.1 301.1,408.0 301.1,408.9 301.2,409.8 301.3,410.7 301.4,411.6 301.5,412.5 301.6,413.4 301.7,414.3 301.8,415.2 301.9,416.1 302.0,417.0 302.1,417.9 302.1,418.8 302.2,419.7 302.3,420.6 302.4,421.5 302.5,422.4 302.6,423.3 302.7,424.2 302.8,425.0 302.9,425.9 303.0,426.8 303.1,427.7 303.1,428.6 303.2,429.5 303.3,430.4 303.4,431.3 303.5,432.2 303.6,433.1 303.7,434.0 303.8,434.9 303.9,435.8 304.0,436.7 304.1,437.6 304.2,438.5 304.2,439.4 304.3,440.3 304.4,441.2 304.5,442.1 304.6,443.0 304.7,443.8 304.8,444.7 304.9,445.6 305.0,446.5 305.1,447.4 305.2,448.3 305.2,449.2 305.3,450.1 305.4,451.0 305.5,451.9 305.6,452.8 305.7,453.7 305.8,454.6 305.9,455.5 306.0,456.4 306.1,457.3 306.2,458.2 306.2,459.1 306.3,460.0 306.4,460.9 306.5,461.8 306.6,462.7 306.7,463.5 306.8,464.4 306.9,465.3 307.0,466.2 307.1,467.1 307.2,468.0 307.3,468.9 307.3,469.8 307.4,470.7 307.5,471.6 307.6,472.5 307.7,473.4 307.8,474.3 307.9,475.2 308.0,476.1 308.1,477.0 308.2,477.9 308.3,478.8 308.3,479.7 308.4,480.6 308.5,481.5 308.6,482.3 308.7,483.2 308.8,484.1 308.9,485.0 309.0,485.9 309.1,486.8 309.2,487.7 309.3,488.6 309.3,489.5 309.4,490.4 309.5,491.3 309.6,492.2 309.7,493.1 309.8,494.0 309.9,494.9 310.0,495.8 310.1,496.7 310.2,497.6 310.3,498.5 310.4,499.4 310.4,500.3 310.5,501.2 310.6,502.0 310.7,502.9 310.8,503.8 310.9,504.7 311.0,505.6 311.1,506.5 311.2,507.4 311.3,508.3 311.4,509.2 311.4,510.1 311.5,511.0 311.6,511.9 311.7,512.8 311.8,513.7 311.9,514.6 312.0,515.5 312.1,516.4 312.2,517.3 312.3,518.2 312.4,519.1 312.4,520.0 312.5,520.9 312.6,521.7 312.7,522.6 312.8,523.5 312.9,524.4 313.0,525.3 313.1,526.2 313.2,527.1 313.3,528.0 313.4,528.9 313.5,529.8 313.5,530.7 313.6,531.6 313.7,532.5 313.8,533.4 313.9,534.3 314.0,535.2 314.1,536.1 314.2,537.0 314.3,537.9 314.4,538.8 314.5,539.7 314.5,540.5 314.6,541.4 314.7,542.3 314.8,543.2 314.9,544.1 315.0,545.0 315.1,545.9 315.2,546.8 315.3,547.7 315.4,548.6 315.5,549.5 315.5,550.4 315.6,551.3 315.7,552.2 315.8,553.1 315.9,554.0 316.0,554.9 316.1,555.8 316.2,556.7 316.3,557.6 316.4,558.5 316.5,559.4 316.6,560.2 316.6,561.1 316.7,562.0 316.8,562.9 316.9,563.8 317.0,564.7 317.1,565.6 317.2,566.5 317.3,567.4 317.4,568.3 317.5,569.2 317.6,570.1 317.6,571.0 317.7,571.9 317.8,572.8 317.9,573.7 318.0,574.6 318.1,575.5 318.2,576.4 318.3,577.3 318.4,578.2 318.5,579.0 318.6,579.9 318.6,580.8 318.7,581.7 318.8,582.6 318.9,583.5 319.0,584.4 319.1,585.3 319.2,586.2 319.3,587.1 319.4,588.0 319.5,588.9 319.6,589.8 319.7,590.7 319.7,591.6 319.8,592.5 319.9,593.4 320.0,594.3 320.1,595.2 320.2,596.1 320.3,597.0 320.4,597.9 320.5,598.7 320.6,599.6 320.7,600.5 320.7,601.4 320.8,602.3 320.9,603.2 321.0,604.1 321.1,605.0 321.2,605.9 321.3,606.8 321.4,607.7 321.5,608.6 321.6,609.5 321.7,610.4 321.7,611.3 321.8,612.2 321.9,613.1 322.0,614.0 322.1,614.9 322.2,615.8 322.3,616.7 322.4,617.6 322.5,618.4 322.6,619.3 322.7,620.2 322.8,621.1 322.8,622.0 322.9,622.9 323.0,623.8 323.1,624.7 323.2,625.6 323.3,626.5 323.4,627.4 323.5,628.3 323.6,629.2 323.7,630.1 323.8,631.0 323.8,631.9 323.9,632.8 324.0,633.7 324.1,634.6 324.2,635.5 324.3,636.4 324.4,637.2 324.5,638.1 324.6,639.0 324.7,639.9 324.8,640.8 324.8,641.7 324.9,642.6 325.0,643.5 325.1,644.4 325.2,645.3 325.3,646.2 325.4,647.1 325.5,648.0 325.6,648.9 325.7,649.8 325.8,650.7 325.9,651.6 325.9,652.5 326.0,653.4 326.1,654.3 326.2,655.2 326.3,656.1 326.4,656.9 326.5,657.8 326.6,658.7 326.7,659.6 326.8,660.5 326.9,661.4 326.9,662.3 327.0,663.2 327.1,664.1 327.2,665.0 327.3,665.9 327.4,666.8 327.5,667.7 327.6,668.6 327.7,669.5 327.8,670.4 327.9,671.3 327.9,672.2 328.0,673.1 328.1,674.0 328.2,674.9 328.3,675.7 328.4,676.6 328.5,677.5 328.6,678.4 328.7,679.3 328.8,680.2 328.9,681.1 329.0,682.0 329.0,682.9 329.1,683.8 329.2,684.7 329.3,685.6 329.4,686.5 329.5,687.4 329.6,688.3 329.7,689.2 329.8,690.1 329.9,691.0 330.0,691.9 330.0,692.8 330.1,693.7 330.2,694.6 330.3,695.4 330.4,696.3 330.5,697.2 330.6,698.1 330.7,699.0 330.8,699.9 330.9,700.8 331.0,701.7 331.0,702.6 331.1,703.5 331.2,704.4 331.3,705.3 331.4,706.2 331.5,707.1 331.6,708.0 331.7,708.9 331.8,709.8 331.9,710.7 332.0,711.6 332.1,712.5 332.1,713.4 332.2,714.3 332.3,715.1 332.4,716.0 332.5,716.9 332.6,717.8 332.7,718.7 332.8,719.6 332.9,720.5 333.0,721.4 333.1,722.3 333.1,723.2 333.2,724.1 333.3,725.0 333.4,725.9 333.5,726.8 333.6,727.7 333.7,728.6 333.8,729.5 333.9,730.4 334.0,731.3 334.1,732.2 334.1,733.1 334.2,733.9 334.3,734.8 334.4,735.7 334.5,736.6 334.6,737.5 334.7,738.4 334.8,739.3 334.9,740.2 335.0,741.1 335.1,742.0 335.1,742.9 335.2,743.8 335.3,744.7 335.4,745.6 335.5,746.5 335.6,747.4 335.7,748.3 335.8,749.2 335.9,750.1 336.0,751.0 336.1,751.9 336.2,752.8 336.2,753.6 336.3,754.5 336.4,755.4 336.5,756.3 336.6,757.2 336.7,758.1 336.8,759.0 336.9,759.9 337.0,760.8 337.1,761.7 337.2,762.6 337.2,763.5 337.3,764.4 337.4,765.3 337.5,766.2 337.6,767.1 337.7,768.0 337.8,768.9 337.9,769.8 338.0,770.7 338.1,771.6 338.2,772.4 338.2,773.3 338.3,774.2 338.4,775.1 338.5,776.0 338.6,776.9 338.7,777.8 338.8,778.7 338.9,779.6 339.0,780.5 339.1,781.4 339.2,782.3 339.3,783.2 339.3,784.1 339.4,785.0 339.5,785.9 339.6,786.8 339.7,787.7 339.8,788.6 339.9,789.5 340.0,790.4 340.1,791.3 340.2,792.1 340.3,793.0 340.3,793.2 340.4,794.1 340.4,795.0 340.5,795.9 340.4,796.8 340.4,797.0 340.3,797.9 340.2,798.8 339.9,799.6 339.6,800.5 339.2,801.3 338.7,802.0 338.2,802.8 337.7,803.5 337.0,804.1 336.3,804.7 335.6,805.2 334.8,805.7 334.0,806.1 333.2,806.4 332.3,806.7 331.4,806.8 330.6,807.0 329.7,807.0 328.8,807.0 327.9,806.8 327.0,806.7 326.1,806.4 325.3,806.1 324.5,805.7 323.7,805.2 323.0,804.7 322.7,804.4 322.0,803.8 321.4,803.2 320.8,802.5 320.2,801.8 320.1,801.7 320.1,801.7 314.8,795.3 309.4,788.9 306.2,783.2 303.0,777.6 299.9,771.9 294.5,765.1 289.1,758.2 283.7,751.3 278.3,744.5 272.9,737.6 267.5,730.7 262.1,723.8 256.8,717.0 251.4,710.1 246.0,703.2 240.6,696.4 235.2,689.5 229.8,682.6 224.4,675.7 219.1,668.9 213.7,662.0 208.3,655.1 202.9,648.3 197.5,641.4 192.1,634.5 186.7,627.6 181.3,620.8 176.0,613.9 170.6,607.0 165.2,600.1 159.8,593.3 154.4,586.4 149.0,579.5 143.6,572.7 138.3,565.8 132.9,558.9 133.0,551.5 133.2,544.1 140.1,538.4 146.9,532.6 153.8,526.8 160.7,521.0 167.5,515.2 174.4,509.5 181.2,503.7 188.1,497.9 195.0,492.1 201.8,486.3 208.7,480.6 215.6,474.8 222.4,469.0 229.3,463.2 236.1,457.4 243.0,451.6 245.0,443.2 247.1,434.8 249.1,426.3 251.1,417.9 253.1,409.4 255.2,401.0 257.2,392.5 259.2,384.1 261.3,375.6 263.3,367.2 265.3,358.8 267.4,350.3 269.4,341.9 263.8,334.9 258.3,327.9 252.7,320.9 247.2,313.9 241.6,306.9 236.0,299.9 230.5,292.9 224.9,285.9 219.4,278.9 213.8,271.9 208.3,264.9 202.7,257.9 197.1,250.9 191.6,243.9 186.0,236.9 180.5,229.9 174.9,222.9 169.3,215.9 163.8,208.9 158.2,201.9 152.7,194.9 147.1,187.9 141.6,180.9 136.0,173.9 130.4,166.9 124.9,159.9 119.3,152.9 113.8,145.9 108.2,138.9 102.7,131.9 97.1,124.9 91.5,117.9 86.0,110.9 80.4,103.9 85.9,98.7 91.4,93.6 96.9,88.5 102.4,83.4 107.9,78.2 115.0,83.0 122.2,87.8 129.3,92.6 136.4,97.4 143.5,102.1 150.6,106.9 157.8,111.7 164.9,116.5 172.0,121.3 179.1,126.1 186.2,130.8 191.8,137.8 197.3,144.8 202.9,151.8 208.4,158.8 214.0,165.8 219.5,172.8 225.1,179.8 230.6,186.8 236.2,193.8 241.8,200.8 247.3,207.8 252.9,214.8 258.4,221.8 264.0,228.8 269.5,235.8 275.1,242.8 280.6,249.8 286.2,256.8 291.7,263.8 297.3,270.7 302.8,277.7 308.4,284.7 313.9,291.7 319.5,298.7 325.0,305.7 330.6,312.7 336.1,319.7 341.7,326.7 347.2,333.7 352.8,340.7 358.4,347.7 363.9,354.7 369.5,361.7 375.0,368.7 380.6,375.7 386.1,382.7 391.7,389.7 397.2,396.7 402.8,403.7 408.3,410.7 413.9,417.7 419.4,424.7 425.0,431.7 430.5,438.6 436.1,445.6 441.6,452.6 447.2,459.6 452.7,466.6 458.3,473.6 463.8,480.6 469.4,487.6 475.0,494.6 480.5,501.6 486.1,508.6 491.6,515.6 497.2,522.6 502.7,529.6 508.3,536.6 513.8,543.6 519.4,550.6 524.9,557.6 530.5,564.6 536.0,571.6 541.6,578.6 547.1,585.6 552.7,592.6 558.2,599.6 563.8,606.5 569.3,613.5 572.7,621.5 576.0,629.5 579.4,637.5 582.7,645.5 586.0,653.5 589.4,661.5 592.7,669.5 596.0,677.5 599.4,685.5 602.7,693.5 606.1,701.5 609.4,709.5 612.7,717.5 616.1,725.5 619.4,733.5 613.5,739.6 607.5,745.7 601.5,751.8 595.6,757.9 589.6,763.9 583.7,770.0 577.7,776.1 571.8,782.2 565.8,788.3 559.9,794.4 553.9,800.5 548.0,806.6 542.0,812.7 536.1,818.8 530.1,824.9 521.4,824.1 512.8,823.4 504.1,822.7 495.4,821.9 486.7,821.2 478.1,820.5 469.4,819.7 460.7,819.0 452.0,818.3 443.4,817.5 434.7,816.8 426.0,816.1 417.3,815.3 408.7,814.6 400.0,813.9 391.3,813.1 383.3,811.8 375.4,810.5 367.4,809.1 359.4,807.8 351.5,806.4 343.5,805.1 335.5,803.8 327.8,802.7 328.2,794.6 328.5,786.5 322.8,779.6 319.7,774.1 316.5,768.5 313.4,762.9 307.9,755.9 302.4,749.0 296.9,742.0 291.5,735.0 286.0,728.0 280.5,721.0 275.1,714.1 269.6,707.1 264.1,700.1 258.6,693.1 253.2,686.1 247.7,679.1 242.2,672.2 236.8,665.2 231.3,658.2 225.8,651.2 220.3,644.2 214.9,637.3 209.4,630.3 203.9,623.3 198.4,616.3 193.0,609.3 187.5,602.4 182.0,595.4 176.6,588.4 171.1,581.4 165.6,574.4 160.1,567.5 154.7,560.5 149.2,553.5 149.2,551.8 156.0,546.1 162.8,540.4 169.5,534.7 176.3,529.0 183.1,523.3 189.8,517.6 196.6,511.9 203.4,506.2 210.1,500.5 216.9,494.8 223.7,489.1 230.4,483.4 237.2,477.7 244.0,472.0 250.7,466.3 257.5,460.6 259.5,452.4 261.4,444.3 263.4,436.1 265.4,427.9 267.3,419.7 269.3,411.6 271.3,403.4 273.2,395.2 275.2,387.0 277.2,378.9 279.1,370.7 281.1,362.5 283.1,354.3 285.0,346.2 287.0,338.0 281.4,330.9 275.8,323.9 270.2,316.8 264.6,309.8 259.0,302.8 253.4,295.7 247.8,288.7 242.2,281.6 236.6,274.6 231.1,267.5 225.5,260.5 219.9,253.4 214.3,246.4 208.7,239.4 203.1,232.3 197.5,225.3 191.9,218.2 186.3,211.2 180.7,204.1 175.1,197.1 169.5,190.0 163.9,183.0 158.3,176.0 152.8,168.9 147.2,161.9 141.6,154.8 136.0,147.8 130.4,140.7 124.8,133.7 119.2,126.6 113.6,119.6 108.0,112.6 102.4,105.5 106.0,102.2 109.6,98.8 116.8,103.7 124.1,108.6 131.4,113.5 138.7,118.4 146.0,123.3 153.3,128.2 160.5,133.1 167.8,138.0 175.1,142.9 180.7,149.9 186.3,157.0 191.9,164.0 197.5,171.1 203.1,178.1 208.6,185.1 214.2,192.2 219.8,199.2 225.4,206.3 231.0,213.3 236.6,220.4 242.2,227.4 247.8,234.4 253.4,241.5 259.0,248.5 264.6,255.6 270.1,262.6 275.7,269.7 281.3,276.7 286.9,283.8 292.5,290.8 298.1,297.8 303.7,304.9 309.3,311.9 314.9,319.0 320.5,326.0 326.0,333.1 331.6,340.1 337.2,347.1 342.8,354.2 348.4,361.2 354.0,368.3 359.6,375.3 365.2,382.4 370.8,389.4 376.4,396.5 382.0,403.5 387.5,410.5 393.1,417.6 398.7,424.6 404.3,431.7 409.9,438.7 415.5,445.8 421.1,452.8 426.7,459.8 432.3,466.9 437.9,473.9 443.4,481.0 449.0,488.0 454.6,495.1 460.2,502.1 465.8,509.2 471.4,516.2 477.0,523.2 482.6,530.3 488.2,537.3 493.8,544.4 499.4,551.4 504.9,558.5 510.5,565.5 516.1,572.6 521.7,579.6 527.3,586.6 532.9,593.7 538.5,600.7 544.1,607.8 549.7,614.8 555.3,621.9 558.5,629.6 561.7,637.3 564.9,645.0 568.1,652.7 571.4,660.4 574.6,668.1 577.8,675.8 581.0,683.6 584.2,691.3 587.4,699.0 590.7,706.7 593.9,714.4 597.1,722.1 600.3,729.8 594.4,735.9 588.6,741.9 582.7,747.9 576.8,753.9 570.9,759.9 565.0,765.9 559.2,772.0 553.3,778.0 547.4,784.0 541.5,790.0 535.6,796.0 529.7,802.1 523.9,808.1 515.2,807.3 506.5,806.6 497.8,805.9 489.1,805.1 480.4,804.4 471.6,803.7 462.9,802.9 454.2,802.2 445.5,801.5 436.8,800.7 428.1,800.0 419.4,799.2 410.7,798.5 402.0,797.8 393.3,797.0 385.4,795.7 377.5,794.4 369.6,793.1 361.7,791.7 353.8,790.4 345.9,789.1 337.9,787.7 333.2,787.1" fill="none" stroke="#4ea1ff" stroke-width="1.4" opacity="0.9"/>
<circle cx="343.6" cy="781.4" r="5" fill="#ffd33d"/>
<text x="8" y="20" fill="#ccc" font-family="monospace" font-size="14">F2C plan: 2566 poses, 0 turn-jumps(red), uncovered(dark red)</text>
</svg>